solid OpenSCAD_Model
  facet normal -1 0 0
    outer loop
      vertex 0 14 0
      vertex 0 0 0
      vertex 0 14 10
    endloop
  endfacet
  facet normal -1 0 0
    outer loop
      vertex 0 16 10
      vertex 0 30 0
      vertex 0 16 0
    endloop
  endfacet
  facet normal -1 0 0
    outer loop
      vertex 0 30 0
      vertex 0 16 10
      vertex 0 30 43
    endloop
  endfacet
  facet normal -1 0 0
    outer loop
      vertex 0 14 10
      vertex 0 30 43
      vertex 0 16 10
    endloop
  endfacet
  facet normal -1 0 0
    outer loop
      vertex 0 0 43
      vertex 0 14 10
      vertex 0 0 0
    endloop
  endfacet
  facet normal -1 0 0
    outer loop
      vertex 0 14 10
      vertex 0 0 43
      vertex 0 30 43
    endloop
  endfacet
  facet normal 0 0 1
    outer loop
      vertex 30 30 43
      vertex 27.5 15 43
      vertex 30 0 43
    endloop
  endfacet
  facet normal 0 0 1
    outer loop
      vertex 30 30 43
      vertex 27.4753 15.7849 43
      vertex 27.5 15 43
    endloop
  endfacet
  facet normal 0 0 1
    outer loop
      vertex 30 30 43
      vertex 27.4014 16.5667 43
      vertex 27.4753 15.7849 43
    endloop
  endfacet
  facet normal 0 0 1
    outer loop
      vertex 30 30 43
      vertex 27.2786 17.3423 43
      vertex 27.4014 16.5667 43
    endloop
  endfacet
  facet normal 0 0 1
    outer loop
      vertex 30 30 43
      vertex 27.1073 18.1086 43
      vertex 27.2786 17.3423 43
    endloop
  endfacet
  facet normal 0 0 1
    outer loop
      vertex 30 30 43
      vertex 26.8882 18.8627 43
      vertex 27.1073 18.1086 43
    endloop
  endfacet
  facet normal 0 0 1
    outer loop
      vertex 30 30 43
      vertex 26.6222 19.6016 43
      vertex 26.8882 18.8627 43
    endloop
  endfacet
  facet normal 0 0 1
    outer loop
      vertex 30 30 43
      vertex 26.3103 20.3222 43
      vertex 26.6222 19.6016 43
    endloop
  endfacet
  facet normal 0 0 1
    outer loop
      vertex 30 30 43
      vertex 25.9538 21.0219 43
      vertex 26.3103 20.3222 43
    endloop
  endfacet
  facet normal 0 0 1
    outer loop
      vertex 30 30 43
      vertex 25.5541 21.6978 43
      vertex 25.9538 21.0219 43
    endloop
  endfacet
  facet normal 0 0 1
    outer loop
      vertex 30 30 43
      vertex 25.1127 22.3473 43
      vertex 25.5541 21.6978 43
    endloop
  endfacet
  facet normal 0 0 1
    outer loop
      vertex 30 30 43
      vertex 24.6314 22.9678 43
      vertex 25.1127 22.3473 43
    endloop
  endfacet
  facet normal 0 0 1
    outer loop
      vertex 30 30 43
      vertex 24.1121 23.5568 43
      vertex 24.6314 22.9678 43
    endloop
  endfacet
  facet normal 0 0 1
    outer loop
      vertex 30 30 43
      vertex 23.5568 24.1121 43
      vertex 24.1121 23.5568 43
    endloop
  endfacet
  facet normal 0 0 1
    outer loop
      vertex 30 30 43
      vertex 22.9678 24.6314 43
      vertex 23.5568 24.1121 43
    endloop
  endfacet
  facet normal 0 0 1
    outer loop
      vertex 30 30 43
      vertex 22.3473 25.1127 43
      vertex 22.9678 24.6314 43
    endloop
  endfacet
  facet normal 0 0 1
    outer loop
      vertex 30 30 43
      vertex 21.6978 25.5541 43
      vertex 22.3473 25.1127 43
    endloop
  endfacet
  facet normal 0 0 1
    outer loop
      vertex 30 30 43
      vertex 21.0219 25.9538 43
      vertex 21.6978 25.5541 43
    endloop
  endfacet
  facet normal 0 0 1
    outer loop
      vertex 30 30 43
      vertex 20.3222 26.3103 43
      vertex 21.0219 25.9538 43
    endloop
  endfacet
  facet normal 0 0 1
    outer loop
      vertex 30 30 43
      vertex 19.6016 26.6222 43
      vertex 20.3222 26.3103 43
    endloop
  endfacet
  facet normal 0 0 1
    outer loop
      vertex 30 30 43
      vertex 18.8627 26.8882 43
      vertex 19.6016 26.6222 43
    endloop
  endfacet
  facet normal 0 0 1
    outer loop
      vertex 30 30 43
      vertex 18.1086 27.1073 43
      vertex 18.8627 26.8882 43
    endloop
  endfacet
  facet normal 0 0 1
    outer loop
      vertex 30 30 43
      vertex 17.3423 27.2786 43
      vertex 18.1086 27.1073 43
    endloop
  endfacet
  facet normal 0 0 1
    outer loop
      vertex 30 30 43
      vertex 16.5667 27.4014 43
      vertex 17.3423 27.2786 43
    endloop
  endfacet
  facet normal 0 0 1
    outer loop
      vertex 30 30 43
      vertex 15.7849 27.4753 43
      vertex 16.5667 27.4014 43
    endloop
  endfacet
  facet normal 0 0 1
    outer loop
      vertex 30 30 43
      vertex 15 27.5 43
      vertex 15.7849 27.4753 43
    endloop
  endfacet
  facet normal -0 0 1
    outer loop
      vertex 0 30 43
      vertex 15 27.5 43
      vertex 30 30 43
    endloop
  endfacet
  facet normal 0 0 1
    outer loop
      vertex 15 27.5 43
      vertex 0 30 43
      vertex 14.2151 27.4753 43
    endloop
  endfacet
  facet normal 0 0 1
    outer loop
      vertex 2.52467 15.7849 43
      vertex 0 30 43
      vertex 2.5 15 43
    endloop
  endfacet
  facet normal 0 0 1
    outer loop
      vertex 2.59857 16.5667 43
      vertex 0 30 43
      vertex 2.52467 15.7849 43
    endloop
  endfacet
  facet normal 0 0 1
    outer loop
      vertex 2.72141 17.3423 43
      vertex 0 30 43
      vertex 2.59857 16.5667 43
    endloop
  endfacet
  facet normal 0 0 1
    outer loop
      vertex 2.89271 18.1086 43
      vertex 0 30 43
      vertex 2.72141 17.3423 43
    endloop
  endfacet
  facet normal 0 0 1
    outer loop
      vertex 3.11179 18.8627 43
      vertex 0 30 43
      vertex 2.89271 18.1086 43
    endloop
  endfacet
  facet normal 0 0 1
    outer loop
      vertex 3.37779 19.6016 43
      vertex 0 30 43
      vertex 3.11179 18.8627 43
    endloop
  endfacet
  facet normal 0 0 1
    outer loop
      vertex 3.68966 20.3222 43
      vertex 0 30 43
      vertex 3.37779 19.6016 43
    endloop
  endfacet
  facet normal 0 0 1
    outer loop
      vertex 4.04617 21.0219 43
      vertex 0 30 43
      vertex 3.68966 20.3222 43
    endloop
  endfacet
  facet normal 0 0 1
    outer loop
      vertex 4.4459 21.6978 43
      vertex 0 30 43
      vertex 4.04617 21.0219 43
    endloop
  endfacet
  facet normal 0 0 1
    outer loop
      vertex 4.88729 22.3473 43
      vertex 0 30 43
      vertex 4.4459 21.6978 43
    endloop
  endfacet
  facet normal 0 0 1
    outer loop
      vertex 5.36858 22.9678 43
      vertex 0 30 43
      vertex 4.88729 22.3473 43
    endloop
  endfacet
  facet normal 0 0 1
    outer loop
      vertex 5.88789 23.5568 43
      vertex 0 30 43
      vertex 5.36858 22.9678 43
    endloop
  endfacet
  facet normal 0 0 1
    outer loop
      vertex 6.44316 24.1121 43
      vertex 0 30 43
      vertex 5.88789 23.5568 43
    endloop
  endfacet
  facet normal 0 0 1
    outer loop
      vertex 7.0322 24.6314 43
      vertex 0 30 43
      vertex 6.44316 24.1121 43
    endloop
  endfacet
  facet normal 0 0 1
    outer loop
      vertex 7.65268 25.1127 43
      vertex 0 30 43
      vertex 7.0322 24.6314 43
    endloop
  endfacet
  facet normal 0 0 1
    outer loop
      vertex 8.30217 25.5541 43
      vertex 0 30 43
      vertex 7.65268 25.1127 43
    endloop
  endfacet
  facet normal 0 0 1
    outer loop
      vertex 8.97808 25.9538 43
      vertex 0 30 43
      vertex 8.30217 25.5541 43
    endloop
  endfacet
  facet normal 0 0 1
    outer loop
      vertex 9.67776 26.3103 43
      vertex 0 30 43
      vertex 8.97808 25.9538 43
    endloop
  endfacet
  facet normal 0 0 1
    outer loop
      vertex 10.3984 26.6222 43
      vertex 0 30 43
      vertex 9.67776 26.3103 43
    endloop
  endfacet
  facet normal 0 0 1
    outer loop
      vertex 11.1373 26.8882 43
      vertex 0 30 43
      vertex 10.3984 26.6222 43
    endloop
  endfacet
  facet normal 0 0 1
    outer loop
      vertex 11.8914 27.1073 43
      vertex 0 30 43
      vertex 11.1373 26.8882 43
    endloop
  endfacet
  facet normal 0 0 1
    outer loop
      vertex 12.6577 27.2786 43
      vertex 0 30 43
      vertex 11.8914 27.1073 43
    endloop
  endfacet
  facet normal 0 0 1
    outer loop
      vertex 13.4333 27.4014 43
      vertex 0 30 43
      vertex 12.6577 27.2786 43
    endloop
  endfacet
  facet normal 0 0 1
    outer loop
      vertex 14.2151 27.4753 43
      vertex 0 30 43
      vertex 13.4333 27.4014 43
    endloop
  endfacet
  facet normal -0 0 1
    outer loop
      vertex 27.4753 14.2151 43
      vertex 30 0 43
      vertex 27.5 15 43
    endloop
  endfacet
  facet normal -0 0 1
    outer loop
      vertex 27.4014 13.4333 43
      vertex 30 0 43
      vertex 27.4753 14.2151 43
    endloop
  endfacet
  facet normal -0 0 1
    outer loop
      vertex 27.2786 12.6577 43
      vertex 30 0 43
      vertex 27.4014 13.4333 43
    endloop
  endfacet
  facet normal -0 0 1
    outer loop
      vertex 27.1073 11.8914 43
      vertex 30 0 43
      vertex 27.2786 12.6577 43
    endloop
  endfacet
  facet normal -0 0 1
    outer loop
      vertex 26.8882 11.1373 43
      vertex 30 0 43
      vertex 27.1073 11.8914 43
    endloop
  endfacet
  facet normal -0 0 1
    outer loop
      vertex 26.6222 10.3984 43
      vertex 30 0 43
      vertex 26.8882 11.1373 43
    endloop
  endfacet
  facet normal -0 0 1
    outer loop
      vertex 26.3103 9.67776 43
      vertex 30 0 43
      vertex 26.6222 10.3984 43
    endloop
  endfacet
  facet normal -0 0 1
    outer loop
      vertex 25.9538 8.97808 43
      vertex 30 0 43
      vertex 26.3103 9.67776 43
    endloop
  endfacet
  facet normal -0 0 1
    outer loop
      vertex 25.5541 8.30217 43
      vertex 30 0 43
      vertex 25.9538 8.97808 43
    endloop
  endfacet
  facet normal -0 0 1
    outer loop
      vertex 25.1127 7.65268 43
      vertex 30 0 43
      vertex 25.5541 8.30217 43
    endloop
  endfacet
  facet normal -0 0 1
    outer loop
      vertex 24.6314 7.0322 43
      vertex 30 0 43
      vertex 25.1127 7.65268 43
    endloop
  endfacet
  facet normal -0 0 1
    outer loop
      vertex 24.1121 6.44316 43
      vertex 30 0 43
      vertex 24.6314 7.0322 43
    endloop
  endfacet
  facet normal -0 0 1
    outer loop
      vertex 23.5568 5.88789 43
      vertex 30 0 43
      vertex 24.1121 6.44316 43
    endloop
  endfacet
  facet normal -0 0 1
    outer loop
      vertex 22.9678 5.36858 43
      vertex 30 0 43
      vertex 23.5568 5.88789 43
    endloop
  endfacet
  facet normal -0 0 1
    outer loop
      vertex 22.3473 4.88729 43
      vertex 30 0 43
      vertex 22.9678 5.36858 43
    endloop
  endfacet
  facet normal -0 0 1
    outer loop
      vertex 21.6978 4.4459 43
      vertex 30 0 43
      vertex 22.3473 4.88729 43
    endloop
  endfacet
  facet normal -0 0 1
    outer loop
      vertex 21.0219 4.04617 43
      vertex 30 0 43
      vertex 21.6978 4.4459 43
    endloop
  endfacet
  facet normal -0 0 1
    outer loop
      vertex 20.3222 3.68966 43
      vertex 30 0 43
      vertex 21.0219 4.04617 43
    endloop
  endfacet
  facet normal -0 0 1
    outer loop
      vertex 19.6016 3.37779 43
      vertex 30 0 43
      vertex 20.3222 3.68966 43
    endloop
  endfacet
  facet normal -0 0 1
    outer loop
      vertex 18.8627 3.11179 43
      vertex 30 0 43
      vertex 19.6016 3.37779 43
    endloop
  endfacet
  facet normal -0 0 1
    outer loop
      vertex 18.1086 2.89271 43
      vertex 30 0 43
      vertex 18.8627 3.11179 43
    endloop
  endfacet
  facet normal -0 0 1
    outer loop
      vertex 17.3423 2.72141 43
      vertex 30 0 43
      vertex 18.1086 2.89271 43
    endloop
  endfacet
  facet normal -0 0 1
    outer loop
      vertex 16.5667 2.59857 43
      vertex 30 0 43
      vertex 17.3423 2.72141 43
    endloop
  endfacet
  facet normal -0 0 1
    outer loop
      vertex 15.7849 2.52467 43
      vertex 30 0 43
      vertex 16.5667 2.59857 43
    endloop
  endfacet
  facet normal -0 0 1
    outer loop
      vertex 15 2.5 43
      vertex 30 0 43
      vertex 15.7849 2.52467 43
    endloop
  endfacet
  facet normal 0 0 1
    outer loop
      vertex 0 0 43
      vertex 15 2.5 43
      vertex 14.2151 2.52467 43
    endloop
  endfacet
  facet normal 0 0 1
    outer loop
      vertex 0 0 43
      vertex 14.2151 2.52467 43
      vertex 13.4333 2.59857 43
    endloop
  endfacet
  facet normal 0 0 1
    outer loop
      vertex 0 0 43
      vertex 2.5 15 43
      vertex 0 30 43
    endloop
  endfacet
  facet normal 0 0 1
    outer loop
      vertex 2.5 15 43
      vertex 0 0 43
      vertex 2.52467 14.2151 43
    endloop
  endfacet
  facet normal 0 0 1
    outer loop
      vertex 15 2.5 43
      vertex 0 0 43
      vertex 30 0 43
    endloop
  endfacet
  facet normal 0 0 1
    outer loop
      vertex 12.6577 2.72141 43
      vertex 0 0 43
      vertex 13.4333 2.59857 43
    endloop
  endfacet
  facet normal 0 0 1
    outer loop
      vertex 11.8914 2.89271 43
      vertex 0 0 43
      vertex 12.6577 2.72141 43
    endloop
  endfacet
  facet normal 0 0 1
    outer loop
      vertex 11.1373 3.11179 43
      vertex 0 0 43
      vertex 11.8914 2.89271 43
    endloop
  endfacet
  facet normal 0 0 1
    outer loop
      vertex 10.3984 3.37779 43
      vertex 0 0 43
      vertex 11.1373 3.11179 43
    endloop
  endfacet
  facet normal 0 0 1
    outer loop
      vertex 9.67776 3.68966 43
      vertex 0 0 43
      vertex 10.3984 3.37779 43
    endloop
  endfacet
  facet normal 0 0 1
    outer loop
      vertex 8.97808 4.04617 43
      vertex 0 0 43
      vertex 9.67776 3.68966 43
    endloop
  endfacet
  facet normal 0 0 1
    outer loop
      vertex 8.30217 4.4459 43
      vertex 0 0 43
      vertex 8.97808 4.04617 43
    endloop
  endfacet
  facet normal 0 0 1
    outer loop
      vertex 7.65268 4.88729 43
      vertex 0 0 43
      vertex 8.30217 4.4459 43
    endloop
  endfacet
  facet normal 0 0 1
    outer loop
      vertex 7.0322 5.36858 43
      vertex 0 0 43
      vertex 7.65268 4.88729 43
    endloop
  endfacet
  facet normal 0 0 1
    outer loop
      vertex 6.44316 5.88789 43
      vertex 0 0 43
      vertex 7.0322 5.36858 43
    endloop
  endfacet
  facet normal 0 0 1
    outer loop
      vertex 5.88789 6.44316 43
      vertex 0 0 43
      vertex 6.44316 5.88789 43
    endloop
  endfacet
  facet normal 0 0 1
    outer loop
      vertex 5.36858 7.0322 43
      vertex 0 0 43
      vertex 5.88789 6.44316 43
    endloop
  endfacet
  facet normal 0 0 1
    outer loop
      vertex 4.88729 7.65268 43
      vertex 0 0 43
      vertex 5.36858 7.0322 43
    endloop
  endfacet
  facet normal 0 0 1
    outer loop
      vertex 4.4459 8.30217 43
      vertex 0 0 43
      vertex 4.88729 7.65268 43
    endloop
  endfacet
  facet normal 0 0 1
    outer loop
      vertex 4.04617 8.97808 43
      vertex 0 0 43
      vertex 4.4459 8.30217 43
    endloop
  endfacet
  facet normal 0 0 1
    outer loop
      vertex 3.68966 9.67776 43
      vertex 0 0 43
      vertex 4.04617 8.97808 43
    endloop
  endfacet
  facet normal 0 0 1
    outer loop
      vertex 3.37779 10.3984 43
      vertex 0 0 43
      vertex 3.68966 9.67776 43
    endloop
  endfacet
  facet normal 0 0 1
    outer loop
      vertex 3.11179 11.1373 43
      vertex 0 0 43
      vertex 3.37779 10.3984 43
    endloop
  endfacet
  facet normal 0 0 1
    outer loop
      vertex 2.89271 11.8914 43
      vertex 0 0 43
      vertex 3.11179 11.1373 43
    endloop
  endfacet
  facet normal 0 0 1
    outer loop
      vertex 2.72141 12.6577 43
      vertex 0 0 43
      vertex 2.89271 11.8914 43
    endloop
  endfacet
  facet normal 0 0 1
    outer loop
      vertex 2.59857 13.4333 43
      vertex 0 0 43
      vertex 2.72141 12.6577 43
    endloop
  endfacet
  facet normal 0 0 1
    outer loop
      vertex 2.52467 14.2151 43
      vertex 0 0 43
      vertex 2.59857 13.4333 43
    endloop
  endfacet
  facet normal 1 0 0
    outer loop
      vertex 30 30 43
      vertex 30 16 10
      vertex 30 30 0
    endloop
  endfacet
  facet normal 1 0 0
    outer loop
      vertex 30 30 43
      vertex 30 14 10
      vertex 30 16 10
    endloop
  endfacet
  facet normal 1 -0 0
    outer loop
      vertex 30 0 43
      vertex 30 14 10
      vertex 30 30 43
    endloop
  endfacet
  facet normal 1 0 0
    outer loop
      vertex 30 0 0
      vertex 30 14 10
      vertex 30 0 43
    endloop
  endfacet
  facet normal 1 0 0
    outer loop
      vertex 30 14 10
      vertex 30 0 0
      vertex 30 14 0
    endloop
  endfacet
  facet normal 1 0 0
    outer loop
      vertex 30 30 0
      vertex 30 16 10
      vertex 30 16 0
    endloop
  endfacet
  facet normal 0 1 0
    outer loop
      vertex 30 30 43
      vertex 16 30 10
      vertex 0 30 43
    endloop
  endfacet
  facet normal 0 1 -0
    outer loop
      vertex 30 30 0
      vertex 16 30 10
      vertex 30 30 43
    endloop
  endfacet
  facet normal 0 1 0
    outer loop
      vertex 16 30 10
      vertex 30 30 0
      vertex 16 30 0
    endloop
  endfacet
  facet normal 0 1 -0
    outer loop
      vertex 14 30 10
      vertex 0 30 43
      vertex 16 30 10
    endloop
  endfacet
  facet normal 0 1 0
    outer loop
      vertex 0 30 0
      vertex 14 30 10
      vertex 14 30 0
    endloop
  endfacet
  facet normal 0 1 0
    outer loop
      vertex 14 30 10
      vertex 0 30 0
      vertex 0 30 43
    endloop
  endfacet
  facet normal 0 0 -1
    outer loop
      vertex 17.5 2 0
      vertex 30 14 0
      vertex 30 0 0
    endloop
  endfacet
  facet normal -0 0 -1
    outer loop
      vertex 30 14 0
      vertex 17.5 2 0
      vertex 30 16 0
    endloop
  endfacet
  facet normal 0 0 -1
    outer loop
      vertex 16 30 0
      vertex 30 16 0
      vertex 17.5 2 0
    endloop
  endfacet
  facet normal 0 -0 -1
    outer loop
      vertex 17.5 2 0
      vertex 30 0 0
      vertex 16 0 0
    endloop
  endfacet
  facet normal 0 0 -1
    outer loop
      vertex 30 14 0
      vertex 32 17.5 0
      vertex 32 12.5 0
    endloop
  endfacet
  facet normal 0 0 -1
    outer loop
      vertex 32 17.5 0
      vertex 30 14 0
      vertex 30 16 0
    endloop
  endfacet
  facet normal 0 0 -1
    outer loop
      vertex 30 16 0
      vertex 16 30 0
      vertex 30 30 0
    endloop
  endfacet
  facet normal 0 0 -1
    outer loop
      vertex 2 17.5 0
      vertex 16 30 0
      vertex 17.5 2 0
    endloop
  endfacet
  facet normal 0 0 -1
    outer loop
      vertex 2 17.5 0
      vertex 17.5 2 0
      vertex 12.5 2 0
    endloop
  endfacet
  facet normal 0 0 -1
    outer loop
      vertex 2 17.5 0
      vertex 12.5 2 0
      vertex 2 12.5 0
    endloop
  endfacet
  facet normal -0 0 -1
    outer loop
      vertex 16 30 0
      vertex 2 17.5 0
      vertex 14 30 0
    endloop
  endfacet
  facet normal 0 0 -1
    outer loop
      vertex 0 30 0
      vertex 2 17.5 0
      vertex 0 16 0
    endloop
  endfacet
  facet normal 0 0 -1
    outer loop
      vertex 2 17.5 0
      vertex 0 30 0
      vertex 14 30 0
    endloop
  endfacet
  facet normal 0 0 -1
    outer loop
      vertex 0 0 0
      vertex 12.5 2 0
      vertex 14 0 0
    endloop
  endfacet
  facet normal -0 0 -1
    outer loop
      vertex 12.5 2 0
      vertex 0 0 0
      vertex 2 12.5 0
    endloop
  endfacet
  facet normal -0 0 -1
    outer loop
      vertex 2 12.5 0
      vertex 0 0 0
      vertex 0 14 0
    endloop
  endfacet
  facet normal 0 0 -1
    outer loop
      vertex 14 30 0
      vertex 17.5 32 0
      vertex 16 30 0
    endloop
  endfacet
  facet normal -0 0 -1
    outer loop
      vertex 17.5 32 0
      vertex 14 30 0
      vertex 12.5 32 0
    endloop
  endfacet
  facet normal 0 -1 0
    outer loop
      vertex 0 0 43
      vertex 14 0 10
      vertex 30 0 43
    endloop
  endfacet
  facet normal 0 -1 0
    outer loop
      vertex 0 0 0
      vertex 14 0 10
      vertex 0 0 43
    endloop
  endfacet
  facet normal 0 -1 -0
    outer loop
      vertex 14 0 10
      vertex 0 0 0
      vertex 14 0 0
    endloop
  endfacet
  facet normal 0 -1 0
    outer loop
      vertex 16 0 10
      vertex 30 0 43
      vertex 14 0 10
    endloop
  endfacet
  facet normal 0 -1 0
    outer loop
      vertex 30 0 0
      vertex 16 0 10
      vertex 16 0 0
    endloop
  endfacet
  facet normal 0 -1 0
    outer loop
      vertex 16 0 10
      vertex 30 0 0
      vertex 30 0 43
    endloop
  endfacet
  facet normal -0.8 0.6 0
    outer loop
      vertex 16 0 0
      vertex 17.5 2 10
      vertex 17.5 2 0
    endloop
  endfacet
  facet normal -0.8 0.6 0
    outer loop
      vertex 17.5 2 10
      vertex 16 0 0
      vertex 16 0 10
    endloop
  endfacet
  facet normal 0 -1 0
    outer loop
      vertex 12.5 2 0
      vertex 17.5 2 10
      vertex 12.5 2 10
    endloop
  endfacet
  facet normal 0 -1 -0
    outer loop
      vertex 17.5 2 10
      vertex 12.5 2 0
      vertex 17.5 2 0
    endloop
  endfacet
  facet normal 0.8 0.6 0
    outer loop
      vertex 14 0 10
      vertex 12.5 2 0
      vertex 12.5 2 10
    endloop
  endfacet
  facet normal 0.8 0.6 0
    outer loop
      vertex 12.5 2 0
      vertex 14 0 10
      vertex 14 0 0
    endloop
  endfacet
  facet normal 0 0 -1
    outer loop
      vertex 14 0 10
      vertex 17.5 2 10
      vertex 16 0 10
    endloop
  endfacet
  facet normal -0 0 -1
    outer loop
      vertex 17.5 2 10
      vertex 14 0 10
      vertex 12.5 2 10
    endloop
  endfacet
  facet normal 0.6 0.8 -0
    outer loop
      vertex 2 12.5 0
      vertex 0 14 10
      vertex 2 12.5 10
    endloop
  endfacet
  facet normal 0.6 0.8 0
    outer loop
      vertex 0 14 10
      vertex 2 12.5 0
      vertex 0 14 0
    endloop
  endfacet
  facet normal 0.6 -0.8 0
    outer loop
      vertex 0 16 0
      vertex 2 17.5 10
      vertex 0 16 10
    endloop
  endfacet
  facet normal 0.6 -0.8 0
    outer loop
      vertex 2 17.5 10
      vertex 0 16 0
      vertex 2 17.5 0
    endloop
  endfacet
  facet normal -1 0 0
    outer loop
      vertex 2 12.5 0
      vertex 2 17.5 10
      vertex 2 17.5 0
    endloop
  endfacet
  facet normal -1 -0 0
    outer loop
      vertex 2 17.5 10
      vertex 2 12.5 0
      vertex 2 12.5 10
    endloop
  endfacet
  facet normal 0 0 -1
    outer loop
      vertex 0 14 10
      vertex 2 17.5 10
      vertex 2 12.5 10
    endloop
  endfacet
  facet normal 0 0 -1
    outer loop
      vertex 2 17.5 10
      vertex 0 14 10
      vertex 0 16 10
    endloop
  endfacet
  facet normal 0.8 -0.6 0
    outer loop
      vertex 16 30 10
      vertex 17.5 32 0
      vertex 17.5 32 10
    endloop
  endfacet
  facet normal 0.8 -0.6 0
    outer loop
      vertex 17.5 32 0
      vertex 16 30 10
      vertex 16 30 0
    endloop
  endfacet
  facet normal 0 1 -0
    outer loop
      vertex 17.5 32 0
      vertex 12.5 32 10
      vertex 17.5 32 10
    endloop
  endfacet
  facet normal 0 1 0
    outer loop
      vertex 12.5 32 10
      vertex 17.5 32 0
      vertex 12.5 32 0
    endloop
  endfacet
  facet normal -0.8 -0.6 0
    outer loop
      vertex 14 30 0
      vertex 12.5 32 10
      vertex 12.5 32 0
    endloop
  endfacet
  facet normal -0.8 -0.6 0
    outer loop
      vertex 12.5 32 10
      vertex 14 30 0
      vertex 14 30 10
    endloop
  endfacet
  facet normal 0 0 1
    outer loop
      vertex 17.5 32 10
      vertex 14 30 10
      vertex 16 30 10
    endloop
  endfacet
  facet normal 0 -0 1
    outer loop
      vertex 14 30 10
      vertex 17.5 32 10
      vertex 12.5 32 10
    endloop
  endfacet
  facet normal -0.6 -0.8 0
    outer loop
      vertex 30 14 0
      vertex 32 12.5 10
      vertex 30 14 10
    endloop
  endfacet
  facet normal -0.6 -0.8 -0
    outer loop
      vertex 32 12.5 10
      vertex 30 14 0
      vertex 32 12.5 0
    endloop
  endfacet
  facet normal -0.6 0.8 0
    outer loop
      vertex 32 17.5 0
      vertex 30 16 10
      vertex 32 17.5 10
    endloop
  endfacet
  facet normal -0.6 0.8 0
    outer loop
      vertex 30 16 10
      vertex 32 17.5 0
      vertex 30 16 0
    endloop
  endfacet
  facet normal 1 -0 0
    outer loop
      vertex 32 12.5 10
      vertex 32 17.5 0
      vertex 32 17.5 10
    endloop
  endfacet
  facet normal 1 0 0
    outer loop
      vertex 32 17.5 0
      vertex 32 12.5 10
      vertex 32 12.5 0
    endloop
  endfacet
  facet normal -0 0 1
    outer loop
      vertex 30 16 10
      vertex 32 12.5 10
      vertex 32 17.5 10
    endloop
  endfacet
  facet normal 0 0 1
    outer loop
      vertex 32 12.5 10
      vertex 30 16 10
      vertex 30 14 10
    endloop
  endfacet
  facet normal -0.999507 -0.0314107 0
    outer loop
      vertex 27.5 15 3
      vertex 27.4753 15.7849 43
      vertex 27.4753 15.7849 3
    endloop
  endfacet
  facet normal -0.999507 -0.0314107 0
    outer loop
      vertex 27.4753 15.7849 43
      vertex 27.5 15 3
      vertex 27.5 15 43
    endloop
  endfacet
  facet normal 0.0314107 -0.999507 0
    outer loop
      vertex 14.2151 27.4753 3
      vertex 15 27.5 43
      vertex 14.2151 27.4753 43
    endloop
  endfacet
  facet normal 0.0314107 -0.999507 0
    outer loop
      vertex 15 27.5 43
      vertex 14.2151 27.4753 3
      vertex 15 27.5 3
    endloop
  endfacet
  facet normal -0.0314107 0.999507 0
    outer loop
      vertex 15.7849 2.52467 3
      vertex 15 2.5 43
      vertex 15.7849 2.52467 43
    endloop
  endfacet
  facet normal -0.0314107 0.999507 0
    outer loop
      vertex 15 2.5 43
      vertex 15.7849 2.52467 3
      vertex 15 2.5 3
    endloop
  endfacet
  facet normal -0.661314 -0.75011 0
    outer loop
      vertex 22.9678 24.6314 3
      vertex 23.5568 24.1121 43
      vertex 22.9678 24.6314 43
    endloop
  endfacet
  facet normal -0.661314 -0.75011 -0
    outer loop
      vertex 23.5568 24.1121 43
      vertex 22.9678 24.6314 3
      vertex 23.5568 24.1121 3
    endloop
  endfacet
  facet normal 0.750111 -0.661312 0
    outer loop
      vertex 5.36858 22.9678 43
      vertex 5.88789 23.5568 3
      vertex 5.88789 23.5568 43
    endloop
  endfacet
  facet normal 0.750111 -0.661312 0
    outer loop
      vertex 5.88789 23.5568 3
      vertex 5.36858 22.9678 43
      vertex 5.36858 22.9678 3
    endloop
  endfacet
  facet normal 0.397149 -0.917754 0
    outer loop
      vertex 9.67776 26.3103 3
      vertex 10.3984 26.6222 43
      vertex 9.67776 26.3103 43
    endloop
  endfacet
  facet normal 0.397149 -0.917754 0
    outer loop
      vertex 10.3984 26.6222 43
      vertex 9.67776 26.3103 3
      vertex 10.3984 26.6222 3
    endloop
  endfacet
  facet normal -0.917754 -0.397149 0
    outer loop
      vertex 26.6222 19.6016 3
      vertex 26.3103 20.3222 43
      vertex 26.3103 20.3222 3
    endloop
  endfacet
  facet normal -0.917754 -0.397149 0
    outer loop
      vertex 26.3103 20.3222 43
      vertex 26.6222 19.6016 3
      vertex 26.6222 19.6016 43
    endloop
  endfacet
  facet normal 0.891006 -0.453992 0
    outer loop
      vertex 3.68966 20.3222 43
      vertex 4.04617 21.0219 3
      vertex 4.04617 21.0219 43
    endloop
  endfacet
  facet normal 0.891006 -0.453992 0
    outer loop
      vertex 4.04617 21.0219 3
      vertex 3.68966 20.3222 43
      vertex 3.68966 20.3222 3
    endloop
  endfacet
  facet normal 0.827081 -0.562083 0
    outer loop
      vertex 4.4459 21.6978 43
      vertex 4.88729 22.3473 3
      vertex 4.88729 22.3473 43
    endloop
  endfacet
  facet normal 0.827081 -0.562083 0
    outer loop
      vertex 4.88729 22.3473 3
      vertex 4.4459 21.6978 43
      vertex 4.4459 21.6978 3
    endloop
  endfacet
  facet normal 0.218145 -0.975916 0
    outer loop
      vertex 11.8914 27.1073 3
      vertex 12.6577 27.2786 43
      vertex 11.8914 27.1073 43
    endloop
  endfacet
  facet normal 0.218145 -0.975916 0
    outer loop
      vertex 12.6577 27.2786 43
      vertex 11.8914 27.1073 3
      vertex 12.6577 27.2786 3
    endloop
  endfacet
  facet normal -0.891007 0.45399 0
    outer loop
      vertex 25.9538 8.97808 3
      vertex 26.3103 9.67776 43
      vertex 26.3103 9.67776 3
    endloop
  endfacet
  facet normal -0.891007 0.45399 0
    outer loop
      vertex 26.3103 9.67776 43
      vertex 25.9538 8.97808 3
      vertex 25.9538 8.97808 43
    endloop
  endfacet
  facet normal -0.278992 0.960293 0
    outer loop
      vertex 18.8627 3.11179 3
      vertex 18.1086 2.89271 43
      vertex 18.8627 3.11179 43
    endloop
  endfacet
  facet normal -0.278992 0.960293 0
    outer loop
      vertex 18.1086 2.89271 43
      vertex 18.8627 3.11179 3
      vertex 18.1086 2.89271 3
    endloop
  endfacet
  facet normal -0.75011 0.661314 0
    outer loop
      vertex 24.1121 6.44316 3
      vertex 24.6314 7.0322 43
      vertex 24.6314 7.0322 3
    endloop
  endfacet
  facet normal -0.75011 0.661314 0
    outer loop
      vertex 24.6314 7.0322 43
      vertex 24.1121 6.44316 3
      vertex 24.1121 6.44316 43
    endloop
  endfacet
  facet normal -0.960294 0.27899 0
    outer loop
      vertex 26.8882 11.1373 3
      vertex 27.1073 11.8914 43
      vertex 27.1073 11.8914 3
    endloop
  endfacet
  facet normal -0.960294 0.27899 0
    outer loop
      vertex 27.1073 11.8914 43
      vertex 26.8882 11.1373 3
      vertex 26.8882 11.1373 43
    endloop
  endfacet
  facet normal 0.278992 0.960293 -0
    outer loop
      vertex 11.8914 2.89271 3
      vertex 11.1373 3.11179 43
      vertex 11.8914 2.89271 43
    endloop
  endfacet
  facet normal 0.278992 0.960293 0
    outer loop
      vertex 11.1373 3.11179 43
      vertex 11.8914 2.89271 3
      vertex 11.1373 3.11179 3
    endloop
  endfacet
  facet normal 0.707107 0.707107 0
    outer loop
      vertex 6.44316 5.88789 43
      vertex 5.88789 6.44316 3
      vertex 5.88789 6.44316 43
    endloop
  endfacet
  facet normal 0.707107 0.707107 0
    outer loop
      vertex 5.88789 6.44316 3
      vertex 6.44316 5.88789 43
      vertex 6.44316 5.88789 3
    endloop
  endfacet
  facet normal -0.975916 -0.218145 0
    outer loop
      vertex 27.2786 17.3423 3
      vertex 27.1073 18.1086 43
      vertex 27.1073 18.1086 3
    endloop
  endfacet
  facet normal -0.975916 -0.218145 0
    outer loop
      vertex 27.1073 18.1086 43
      vertex 27.2786 17.3423 3
      vertex 27.2786 17.3423 43
    endloop
  endfacet
  facet normal -0.960294 -0.27899 0
    outer loop
      vertex 27.1073 18.1086 3
      vertex 26.8882 18.8627 43
      vertex 26.8882 18.8627 3
    endloop
  endfacet
  facet normal -0.960294 -0.27899 0
    outer loop
      vertex 26.8882 18.8627 43
      vertex 27.1073 18.1086 3
      vertex 27.1073 18.1086 43
    endloop
  endfacet
  facet normal -0.75011 -0.661314 0
    outer loop
      vertex 24.6314 22.9678 3
      vertex 24.1121 23.5568 43
      vertex 24.1121 23.5568 3
    endloop
  endfacet
  facet normal -0.75011 -0.661314 0
    outer loop
      vertex 24.1121 23.5568 43
      vertex 24.6314 22.9678 3
      vertex 24.6314 22.9678 43
    endloop
  endfacet
  facet normal -0.218145 -0.975916 0
    outer loop
      vertex 17.3423 27.2786 3
      vertex 18.1086 27.1073 43
      vertex 17.3423 27.2786 43
    endloop
  endfacet
  facet normal -0.218145 -0.975916 -0
    outer loop
      vertex 18.1086 27.1073 43
      vertex 17.3423 27.2786 3
      vertex 18.1086 27.1073 3
    endloop
  endfacet
  facet normal -0.453991 -0.891006 0
    outer loop
      vertex 20.3222 26.3103 3
      vertex 21.0219 25.9538 43
      vertex 20.3222 26.3103 43
    endloop
  endfacet
  facet normal -0.453991 -0.891006 -0
    outer loop
      vertex 21.0219 25.9538 43
      vertex 20.3222 26.3103 3
      vertex 21.0219 25.9538 3
    endloop
  endfacet
  facet normal -0.612906 -0.790156 0
    outer loop
      vertex 22.3473 25.1127 3
      vertex 22.9678 24.6314 43
      vertex 22.3473 25.1127 43
    endloop
  endfacet
  facet normal -0.612906 -0.790156 -0
    outer loop
      vertex 22.9678 24.6314 43
      vertex 22.3473 25.1127 3
      vertex 22.9678 24.6314 3
    endloop
  endfacet
  facet normal 0.975917 -0.218143 0
    outer loop
      vertex 2.72141 17.3423 43
      vertex 2.89271 18.1086 3
      vertex 2.89271 18.1086 43
    endloop
  endfacet
  facet normal 0.975917 -0.218143 0
    outer loop
      vertex 2.89271 18.1086 3
      vertex 2.72141 17.3423 43
      vertex 2.72141 17.3423 3
    endloop
  endfacet
  facet normal 0.790156 -0.612906 0
    outer loop
      vertex 4.88729 22.3473 43
      vertex 5.36858 22.9678 3
      vertex 5.36858 22.9678 43
    endloop
  endfacet
  facet normal 0.790156 -0.612906 0
    outer loop
      vertex 5.36858 22.9678 3
      vertex 4.88729 22.3473 43
      vertex 4.88729 22.3473 3
    endloop
  endfacet
  facet normal 0.995562 -0.094108 0
    outer loop
      vertex 2.52467 15.7849 43
      vertex 2.59857 16.5667 3
      vertex 2.59857 16.5667 43
    endloop
  endfacet
  facet normal 0.995562 -0.094108 0
    outer loop
      vertex 2.59857 16.5667 3
      vertex 2.52467 15.7849 43
      vertex 2.52467 15.7849 3
    endloop
  endfacet
  facet normal 0.509042 -0.860742 0
    outer loop
      vertex 8.30217 25.5541 3
      vertex 8.97808 25.9538 43
      vertex 8.30217 25.5541 43
    endloop
  endfacet
  facet normal 0.509042 -0.860742 0
    outer loop
      vertex 8.97808 25.9538 43
      vertex 8.30217 25.5541 3
      vertex 8.97808 25.9538 3
    endloop
  endfacet
  facet normal 0.562082 -0.827081 0
    outer loop
      vertex 7.65268 25.1127 3
      vertex 8.30217 25.5541 43
      vertex 7.65268 25.1127 43
    endloop
  endfacet
  facet normal 0.562082 -0.827081 0
    outer loop
      vertex 8.30217 25.5541 43
      vertex 7.65268 25.1127 3
      vertex 8.30217 25.5541 3
    endloop
  endfacet
  facet normal 0.661314 -0.75011 0
    outer loop
      vertex 6.44316 24.1121 3
      vertex 7.0322 24.6314 43
      vertex 6.44316 24.1121 43
    endloop
  endfacet
  facet normal 0.661314 -0.75011 0
    outer loop
      vertex 7.0322 24.6314 43
      vertex 6.44316 24.1121 3
      vertex 7.0322 24.6314 3
    endloop
  endfacet
  facet normal 0.338738 -0.940881 0
    outer loop
      vertex 10.3984 26.6222 3
      vertex 11.1373 26.8882 43
      vertex 10.3984 26.6222 43
    endloop
  endfacet
  facet normal 0.338738 -0.940881 0
    outer loop
      vertex 11.1373 26.8882 43
      vertex 10.3984 26.6222 3
      vertex 11.1373 26.8882 3
    endloop
  endfacet
  facet normal 0.156432 -0.987689 0
    outer loop
      vertex 12.6577 27.2786 3
      vertex 13.4333 27.4014 43
      vertex 12.6577 27.2786 43
    endloop
  endfacet
  facet normal 0.156432 -0.987689 0
    outer loop
      vertex 13.4333 27.4014 43
      vertex 12.6577 27.2786 3
      vertex 13.4333 27.4014 3
    endloop
  endfacet
  facet normal -0.661312 0.750111 0
    outer loop
      vertex 23.5568 5.88789 3
      vertex 22.9678 5.36858 43
      vertex 23.5568 5.88789 43
    endloop
  endfacet
  facet normal -0.661312 0.750111 0
    outer loop
      vertex 22.9678 5.36858 43
      vertex 23.5568 5.88789 3
      vertex 22.9678 5.36858 3
    endloop
  endfacet
  facet normal -0.562083 0.827081 0
    outer loop
      vertex 22.3473 4.88729 3
      vertex 21.6978 4.4459 43
      vertex 22.3473 4.88729 43
    endloop
  endfacet
  facet normal -0.562083 0.827081 0
    outer loop
      vertex 21.6978 4.4459 43
      vertex 22.3473 4.88729 3
      vertex 21.6978 4.4459 3
    endloop
  endfacet
  facet normal -0.790155 0.612907 0
    outer loop
      vertex 24.6314 7.0322 3
      vertex 25.1127 7.65268 43
      vertex 25.1127 7.65268 3
    endloop
  endfacet
  facet normal -0.790155 0.612907 0
    outer loop
      vertex 25.1127 7.65268 43
      vertex 24.6314 7.0322 3
      vertex 24.6314 7.0322 43
    endloop
  endfacet
  facet normal -0.940881 0.338738 0
    outer loop
      vertex 26.6222 10.3984 3
      vertex 26.8882 11.1373 43
      vertex 26.8882 11.1373 3
    endloop
  endfacet
  facet normal -0.940881 0.338738 0
    outer loop
      vertex 26.8882 11.1373 43
      vertex 26.6222 10.3984 3
      vertex 26.6222 10.3984 43
    endloop
  endfacet
  facet normal 0.218143 0.975917 -0
    outer loop
      vertex 12.6577 2.72141 3
      vertex 11.8914 2.89271 43
      vertex 12.6577 2.72141 43
    endloop
  endfacet
  facet normal 0.218143 0.975917 0
    outer loop
      vertex 11.8914 2.89271 43
      vertex 12.6577 2.72141 3
      vertex 11.8914 2.89271 3
    endloop
  endfacet
  facet normal 0.612907 0.790155 -0
    outer loop
      vertex 7.65268 4.88729 3
      vertex 7.0322 5.36858 43
      vertex 7.65268 4.88729 43
    endloop
  endfacet
  facet normal 0.612907 0.790155 0
    outer loop
      vertex 7.0322 5.36858 43
      vertex 7.65268 4.88729 3
      vertex 7.0322 5.36858 3
    endloop
  endfacet
  facet normal 0.562083 0.827081 -0
    outer loop
      vertex 8.30217 4.4459 3
      vertex 7.65268 4.88729 43
      vertex 8.30217 4.4459 43
    endloop
  endfacet
  facet normal 0.562083 0.827081 0
    outer loop
      vertex 7.65268 4.88729 43
      vertex 8.30217 4.4459 3
      vertex 7.65268 4.88729 3
    endloop
  endfacet
  facet normal 0.338737 0.940881 -0
    outer loop
      vertex 11.1373 3.11179 3
      vertex 10.3984 3.37779 43
      vertex 11.1373 3.11179 43
    endloop
  endfacet
  facet normal 0.338737 0.940881 0
    outer loop
      vertex 10.3984 3.37779 43
      vertex 11.1373 3.11179 3
      vertex 10.3984 3.37779 3
    endloop
  endfacet
  facet normal 0.453991 0.891006 -0
    outer loop
      vertex 9.67776 3.68966 3
      vertex 8.97808 4.04617 43
      vertex 9.67776 3.68966 43
    endloop
  endfacet
  facet normal 0.453991 0.891006 0
    outer loop
      vertex 8.97808 4.04617 43
      vertex 9.67776 3.68966 3
      vertex 8.97808 4.04617 3
    endloop
  endfacet
  facet normal 0.0941082 0.995562 -0
    outer loop
      vertex 14.2151 2.52467 3
      vertex 13.4333 2.59857 43
      vertex 14.2151 2.52467 43
    endloop
  endfacet
  facet normal 0.0941082 0.995562 0
    outer loop
      vertex 13.4333 2.59857 43
      vertex 14.2151 2.52467 3
      vertex 13.4333 2.59857 3
    endloop
  endfacet
  facet normal 0.750111 0.661312 0
    outer loop
      vertex 5.88789 6.44316 43
      vertex 5.36858 7.0322 3
      vertex 5.36858 7.0322 43
    endloop
  endfacet
  facet normal 0.750111 0.661312 0
    outer loop
      vertex 5.36858 7.0322 3
      vertex 5.88789 6.44316 43
      vertex 5.88789 6.44316 3
    endloop
  endfacet
  facet normal 0.917755 0.397148 0
    outer loop
      vertex 3.68966 9.67776 43
      vertex 3.37779 10.3984 3
      vertex 3.37779 10.3984 43
    endloop
  endfacet
  facet normal 0.917755 0.397148 0
    outer loop
      vertex 3.37779 10.3984 3
      vertex 3.68966 9.67776 43
      vertex 3.68966 9.67776 3
    endloop
  endfacet
  facet normal -0.987689 -0.156432 0
    outer loop
      vertex 27.4014 16.5667 3
      vertex 27.2786 17.3423 43
      vertex 27.2786 17.3423 3
    endloop
  endfacet
  facet normal -0.987689 -0.156432 0
    outer loop
      vertex 27.2786 17.3423 43
      vertex 27.4014 16.5667 3
      vertex 27.4014 16.5667 43
    endloop
  endfacet
  facet normal -0.995562 -0.0941104 0
    outer loop
      vertex 27.4753 15.7849 3
      vertex 27.4014 16.5667 43
      vertex 27.4014 16.5667 3
    endloop
  endfacet
  facet normal -0.995562 -0.0941104 0
    outer loop
      vertex 27.4014 16.5667 43
      vertex 27.4753 15.7849 3
      vertex 27.4753 15.7849 43
    endloop
  endfacet
  facet normal -0.940881 -0.338739 0
    outer loop
      vertex 26.8882 18.8627 3
      vertex 26.6222 19.6016 43
      vertex 26.6222 19.6016 3
    endloop
  endfacet
  facet normal -0.940881 -0.338739 0
    outer loop
      vertex 26.6222 19.6016 43
      vertex 26.8882 18.8627 3
      vertex 26.8882 18.8627 43
    endloop
  endfacet
  facet normal -0.790156 -0.612906 0
    outer loop
      vertex 25.1127 22.3473 3
      vertex 24.6314 22.9678 43
      vertex 24.6314 22.9678 3
    endloop
  endfacet
  facet normal -0.790156 -0.612906 0
    outer loop
      vertex 24.6314 22.9678 43
      vertex 25.1127 22.3473 3
      vertex 25.1127 22.3473 43
    endloop
  endfacet
  facet normal -0.860742 -0.509041 0
    outer loop
      vertex 25.9538 21.0219 3
      vertex 25.5541 21.6978 43
      vertex 25.5541 21.6978 3
    endloop
  endfacet
  facet normal -0.860742 -0.509041 0
    outer loop
      vertex 25.5541 21.6978 43
      vertex 25.9538 21.0219 3
      vertex 25.9538 21.0219 43
    endloop
  endfacet
  facet normal -0.891006 -0.453991 0
    outer loop
      vertex 26.3103 20.3222 3
      vertex 25.9538 21.0219 43
      vertex 25.9538 21.0219 3
    endloop
  endfacet
  facet normal -0.891006 -0.453991 0
    outer loop
      vertex 25.9538 21.0219 43
      vertex 26.3103 20.3222 3
      vertex 26.3103 20.3222 43
    endloop
  endfacet
  facet normal -0.27899 -0.960294 0
    outer loop
      vertex 18.1086 27.1073 3
      vertex 18.8627 26.8882 43
      vertex 18.1086 27.1073 43
    endloop
  endfacet
  facet normal -0.27899 -0.960294 -0
    outer loop
      vertex 18.8627 26.8882 43
      vertex 18.1086 27.1073 3
      vertex 18.8627 26.8882 3
    endloop
  endfacet
  facet normal -0.156432 -0.987689 0
    outer loop
      vertex 16.5667 27.4014 3
      vertex 17.3423 27.2786 43
      vertex 16.5667 27.4014 43
    endloop
  endfacet
  facet normal -0.156432 -0.987689 -0
    outer loop
      vertex 17.3423 27.2786 43
      vertex 16.5667 27.4014 3
      vertex 17.3423 27.2786 3
    endloop
  endfacet
  facet normal -0.0941104 -0.995562 0
    outer loop
      vertex 15.7849 27.4753 3
      vertex 16.5667 27.4014 43
      vertex 15.7849 27.4753 43
    endloop
  endfacet
  facet normal -0.0941104 -0.995562 -0
    outer loop
      vertex 16.5667 27.4014 43
      vertex 15.7849 27.4753 3
      vertex 16.5667 27.4014 3
    endloop
  endfacet
  facet normal -0.0314107 -0.999507 0
    outer loop
      vertex 15 27.5 3
      vertex 15.7849 27.4753 43
      vertex 15 27.5 43
    endloop
  endfacet
  facet normal -0.0314107 -0.999507 -0
    outer loop
      vertex 15.7849 27.4753 43
      vertex 15 27.5 3
      vertex 15.7849 27.4753 3
    endloop
  endfacet
  facet normal -0.338739 -0.940881 0
    outer loop
      vertex 18.8627 26.8882 3
      vertex 19.6016 26.6222 43
      vertex 18.8627 26.8882 43
    endloop
  endfacet
  facet normal -0.338739 -0.940881 -0
    outer loop
      vertex 19.6016 26.6222 43
      vertex 18.8627 26.8882 3
      vertex 19.6016 26.6222 3
    endloop
  endfacet
  facet normal -0.509041 -0.860742 0
    outer loop
      vertex 21.0219 25.9538 3
      vertex 21.6978 25.5541 43
      vertex 21.0219 25.9538 43
    endloop
  endfacet
  facet normal -0.509041 -0.860742 -0
    outer loop
      vertex 21.6978 25.5541 43
      vertex 21.0219 25.9538 3
      vertex 21.6978 25.5541 3
    endloop
  endfacet
  facet normal 0 0 1
    outer loop
      vertex 27.4753 15.7849 3
      vertex 27.4753 14.2151 3
      vertex 27.5 15 3
    endloop
  endfacet
  facet normal 0 0 1
    outer loop
      vertex 27.4014 16.5667 3
      vertex 27.4753 14.2151 3
      vertex 27.4753 15.7849 3
    endloop
  endfacet
  facet normal 0 0 1
    outer loop
      vertex 27.4014 16.5667 3
      vertex 27.4014 13.4333 3
      vertex 27.4753 14.2151 3
    endloop
  endfacet
  facet normal 0 0 1
    outer loop
      vertex 27.2786 17.3423 3
      vertex 27.4014 13.4333 3
      vertex 27.4014 16.5667 3
    endloop
  endfacet
  facet normal 0 0 1
    outer loop
      vertex 27.2786 17.3423 3
      vertex 27.2786 12.6577 3
      vertex 27.4014 13.4333 3
    endloop
  endfacet
  facet normal 0 0 1
    outer loop
      vertex 27.1073 18.1086 3
      vertex 27.2786 12.6577 3
      vertex 27.2786 17.3423 3
    endloop
  endfacet
  facet normal 0 0 1
    outer loop
      vertex 27.1073 18.1086 3
      vertex 27.1073 11.8914 3
      vertex 27.2786 12.6577 3
    endloop
  endfacet
  facet normal 0 0 1
    outer loop
      vertex 26.8882 18.8627 3
      vertex 27.1073 11.8914 3
      vertex 27.1073 18.1086 3
    endloop
  endfacet
  facet normal 0 0 1
    outer loop
      vertex 26.8882 18.8627 3
      vertex 26.8882 11.1373 3
      vertex 27.1073 11.8914 3
    endloop
  endfacet
  facet normal 0 0 1
    outer loop
      vertex 26.6222 19.6016 3
      vertex 26.8882 11.1373 3
      vertex 26.8882 18.8627 3
    endloop
  endfacet
  facet normal 0 0 1
    outer loop
      vertex 26.6222 19.6016 3
      vertex 26.6222 10.3984 3
      vertex 26.8882 11.1373 3
    endloop
  endfacet
  facet normal 0 0 1
    outer loop
      vertex 26.3103 20.3222 3
      vertex 26.6222 10.3984 3
      vertex 26.6222 19.6016 3
    endloop
  endfacet
  facet normal 0 0 1
    outer loop
      vertex 26.3103 20.3222 3
      vertex 26.3103 9.67776 3
      vertex 26.6222 10.3984 3
    endloop
  endfacet
  facet normal 0 0 1
    outer loop
      vertex 25.9538 21.0219 3
      vertex 26.3103 9.67776 3
      vertex 26.3103 20.3222 3
    endloop
  endfacet
  facet normal 0 0 1
    outer loop
      vertex 25.9538 21.0219 3
      vertex 25.9538 8.97808 3
      vertex 26.3103 9.67776 3
    endloop
  endfacet
  facet normal 0 0 1
    outer loop
      vertex 25.5541 21.6978 3
      vertex 25.9538 8.97808 3
      vertex 25.9538 21.0219 3
    endloop
  endfacet
  facet normal 0 0 1
    outer loop
      vertex 25.5541 21.6978 3
      vertex 25.5541 8.30217 3
      vertex 25.9538 8.97808 3
    endloop
  endfacet
  facet normal 0 0 1
    outer loop
      vertex 25.1127 22.3473 3
      vertex 25.5541 8.30217 3
      vertex 25.5541 21.6978 3
    endloop
  endfacet
  facet normal 0 0 1
    outer loop
      vertex 25.1127 22.3473 3
      vertex 25.1127 7.65268 3
      vertex 25.5541 8.30217 3
    endloop
  endfacet
  facet normal 0 0 1
    outer loop
      vertex 24.6314 22.9678 3
      vertex 25.1127 7.65268 3
      vertex 25.1127 22.3473 3
    endloop
  endfacet
  facet normal 0 0 1
    outer loop
      vertex 24.6314 22.9678 3
      vertex 24.6314 7.0322 3
      vertex 25.1127 7.65268 3
    endloop
  endfacet
  facet normal 0 0 1
    outer loop
      vertex 24.1121 23.5568 3
      vertex 24.6314 7.0322 3
      vertex 24.6314 22.9678 3
    endloop
  endfacet
  facet normal 0 0 1
    outer loop
      vertex 24.1121 23.5568 3
      vertex 24.1121 6.44316 3
      vertex 24.6314 7.0322 3
    endloop
  endfacet
  facet normal 0 0 1
    outer loop
      vertex 23.5568 24.1121 3
      vertex 24.1121 6.44316 3
      vertex 24.1121 23.5568 3
    endloop
  endfacet
  facet normal 0 0 1
    outer loop
      vertex 23.5568 24.1121 3
      vertex 23.5568 5.88789 3
      vertex 24.1121 6.44316 3
    endloop
  endfacet
  facet normal 0 0 1
    outer loop
      vertex 22.9678 24.6314 3
      vertex 23.5568 5.88789 3
      vertex 23.5568 24.1121 3
    endloop
  endfacet
  facet normal 0 0 1
    outer loop
      vertex 22.9678 24.6314 3
      vertex 22.9678 5.36858 3
      vertex 23.5568 5.88789 3
    endloop
  endfacet
  facet normal 0 0 1
    outer loop
      vertex 22.3473 25.1127 3
      vertex 22.9678 5.36858 3
      vertex 22.9678 24.6314 3
    endloop
  endfacet
  facet normal 0 0 1
    outer loop
      vertex 22.3473 25.1127 3
      vertex 22.3473 4.88729 3
      vertex 22.9678 5.36858 3
    endloop
  endfacet
  facet normal 0 0 1
    outer loop
      vertex 21.6978 25.5541 3
      vertex 22.3473 4.88729 3
      vertex 22.3473 25.1127 3
    endloop
  endfacet
  facet normal 0 0 1
    outer loop
      vertex 21.6978 25.5541 3
      vertex 21.6978 4.4459 3
      vertex 22.3473 4.88729 3
    endloop
  endfacet
  facet normal 0 0 1
    outer loop
      vertex 21.0219 25.9538 3
      vertex 21.6978 4.4459 3
      vertex 21.6978 25.5541 3
    endloop
  endfacet
  facet normal 0 0 1
    outer loop
      vertex 21.0219 25.9538 3
      vertex 21.0219 4.04617 3
      vertex 21.6978 4.4459 3
    endloop
  endfacet
  facet normal 0 0 1
    outer loop
      vertex 20.3222 26.3103 3
      vertex 21.0219 4.04617 3
      vertex 21.0219 25.9538 3
    endloop
  endfacet
  facet normal 0 0 1
    outer loop
      vertex 20.3222 26.3103 3
      vertex 20.3222 3.68966 3
      vertex 21.0219 4.04617 3
    endloop
  endfacet
  facet normal 0 0 1
    outer loop
      vertex 19.6016 26.6222 3
      vertex 20.3222 3.68966 3
      vertex 20.3222 26.3103 3
    endloop
  endfacet
  facet normal 0 0 1
    outer loop
      vertex 19.6016 26.6222 3
      vertex 19.6016 3.37779 3
      vertex 20.3222 3.68966 3
    endloop
  endfacet
  facet normal 0 0 1
    outer loop
      vertex 18.8627 26.8882 3
      vertex 19.6016 3.37779 3
      vertex 19.6016 26.6222 3
    endloop
  endfacet
  facet normal 0 0 1
    outer loop
      vertex 18.8627 26.8882 3
      vertex 18.8627 3.11179 3
      vertex 19.6016 3.37779 3
    endloop
  endfacet
  facet normal 0 0 1
    outer loop
      vertex 18.1086 27.1073 3
      vertex 18.8627 3.11179 3
      vertex 18.8627 26.8882 3
    endloop
  endfacet
  facet normal 0 0 1
    outer loop
      vertex 18.1086 27.1073 3
      vertex 18.1086 2.89271 3
      vertex 18.8627 3.11179 3
    endloop
  endfacet
  facet normal 0 0 1
    outer loop
      vertex 17.3423 27.2786 3
      vertex 18.1086 2.89271 3
      vertex 18.1086 27.1073 3
    endloop
  endfacet
  facet normal 0 0 1
    outer loop
      vertex 17.3423 27.2786 3
      vertex 17.3423 2.72141 3
      vertex 18.1086 2.89271 3
    endloop
  endfacet
  facet normal 0 0 1
    outer loop
      vertex 16.5667 27.4014 3
      vertex 17.3423 2.72141 3
      vertex 17.3423 27.2786 3
    endloop
  endfacet
  facet normal 0 0 1
    outer loop
      vertex 16.5667 27.4014 3
      vertex 16.5667 2.59857 3
      vertex 17.3423 2.72141 3
    endloop
  endfacet
  facet normal 0 0 1
    outer loop
      vertex 15.7849 27.4753 3
      vertex 16.5667 2.59857 3
      vertex 16.5667 27.4014 3
    endloop
  endfacet
  facet normal 0 0 1
    outer loop
      vertex 15.7849 27.4753 3
      vertex 15.7849 2.52467 3
      vertex 16.5667 2.59857 3
    endloop
  endfacet
  facet normal 0 0 1
    outer loop
      vertex 15 27.5 3
      vertex 15.7849 2.52467 3
      vertex 15.7849 27.4753 3
    endloop
  endfacet
  facet normal 0 0 1
    outer loop
      vertex 15 27.5 3
      vertex 15 2.5 3
      vertex 15.7849 2.52467 3
    endloop
  endfacet
  facet normal -0 0 1
    outer loop
      vertex 14.2151 27.4753 3
      vertex 15 2.5 3
      vertex 15 27.5 3
    endloop
  endfacet
  facet normal 0 0 1
    outer loop
      vertex 14.2151 27.4753 3
      vertex 14.2151 2.52467 3
      vertex 15 2.5 3
    endloop
  endfacet
  facet normal -0 0 1
    outer loop
      vertex 13.4333 27.4014 3
      vertex 14.2151 2.52467 3
      vertex 14.2151 27.4753 3
    endloop
  endfacet
  facet normal 0 0 1
    outer loop
      vertex 13.4333 27.4014 3
      vertex 13.4333 2.59857 3
      vertex 14.2151 2.52467 3
    endloop
  endfacet
  facet normal -0 0 1
    outer loop
      vertex 12.6577 27.2786 3
      vertex 13.4333 2.59857 3
      vertex 13.4333 27.4014 3
    endloop
  endfacet
  facet normal 0 0 1
    outer loop
      vertex 12.6577 27.2786 3
      vertex 12.6577 2.72141 3
      vertex 13.4333 2.59857 3
    endloop
  endfacet
  facet normal -0 0 1
    outer loop
      vertex 11.8914 27.1073 3
      vertex 12.6577 2.72141 3
      vertex 12.6577 27.2786 3
    endloop
  endfacet
  facet normal 0 0 1
    outer loop
      vertex 11.8914 27.1073 3
      vertex 11.8914 2.89271 3
      vertex 12.6577 2.72141 3
    endloop
  endfacet
  facet normal -0 0 1
    outer loop
      vertex 11.1373 26.8882 3
      vertex 11.8914 2.89271 3
      vertex 11.8914 27.1073 3
    endloop
  endfacet
  facet normal 0 0 1
    outer loop
      vertex 11.1373 26.8882 3
      vertex 11.1373 3.11179 3
      vertex 11.8914 2.89271 3
    endloop
  endfacet
  facet normal -0 0 1
    outer loop
      vertex 10.3984 26.6222 3
      vertex 11.1373 3.11179 3
      vertex 11.1373 26.8882 3
    endloop
  endfacet
  facet normal 0 0 1
    outer loop
      vertex 10.3984 26.6222 3
      vertex 10.3984 3.37779 3
      vertex 11.1373 3.11179 3
    endloop
  endfacet
  facet normal -0 0 1
    outer loop
      vertex 9.67776 26.3103 3
      vertex 10.3984 3.37779 3
      vertex 10.3984 26.6222 3
    endloop
  endfacet
  facet normal 0 0 1
    outer loop
      vertex 9.67776 26.3103 3
      vertex 9.67776 3.68966 3
      vertex 10.3984 3.37779 3
    endloop
  endfacet
  facet normal -0 0 1
    outer loop
      vertex 8.97808 25.9538 3
      vertex 9.67776 3.68966 3
      vertex 9.67776 26.3103 3
    endloop
  endfacet
  facet normal 0 0 1
    outer loop
      vertex 8.97808 25.9538 3
      vertex 8.97808 4.04617 3
      vertex 9.67776 3.68966 3
    endloop
  endfacet
  facet normal -0 0 1
    outer loop
      vertex 8.30217 25.5541 3
      vertex 8.97808 4.04617 3
      vertex 8.97808 25.9538 3
    endloop
  endfacet
  facet normal 0 0 1
    outer loop
      vertex 8.30217 25.5541 3
      vertex 8.30217 4.4459 3
      vertex 8.97808 4.04617 3
    endloop
  endfacet
  facet normal -0 0 1
    outer loop
      vertex 7.65268 25.1127 3
      vertex 8.30217 4.4459 3
      vertex 8.30217 25.5541 3
    endloop
  endfacet
  facet normal 0 0 1
    outer loop
      vertex 7.65268 25.1127 3
      vertex 7.65268 4.88729 3
      vertex 8.30217 4.4459 3
    endloop
  endfacet
  facet normal -0 0 1
    outer loop
      vertex 7.0322 24.6314 3
      vertex 7.65268 4.88729 3
      vertex 7.65268 25.1127 3
    endloop
  endfacet
  facet normal 0 0 1
    outer loop
      vertex 7.0322 24.6314 3
      vertex 7.0322 5.36858 3
      vertex 7.65268 4.88729 3
    endloop
  endfacet
  facet normal -0 0 1
    outer loop
      vertex 6.44316 24.1121 3
      vertex 7.0322 5.36858 3
      vertex 7.0322 24.6314 3
    endloop
  endfacet
  facet normal 0 0 1
    outer loop
      vertex 6.44316 24.1121 3
      vertex 6.44316 5.88789 3
      vertex 7.0322 5.36858 3
    endloop
  endfacet
  facet normal -0 0 1
    outer loop
      vertex 5.88789 23.5568 3
      vertex 6.44316 5.88789 3
      vertex 6.44316 24.1121 3
    endloop
  endfacet
  facet normal 0 0 1
    outer loop
      vertex 5.88789 23.5568 3
      vertex 5.88789 6.44316 3
      vertex 6.44316 5.88789 3
    endloop
  endfacet
  facet normal -0 0 1
    outer loop
      vertex 5.36858 22.9678 3
      vertex 5.88789 6.44316 3
      vertex 5.88789 23.5568 3
    endloop
  endfacet
  facet normal 0 0 1
    outer loop
      vertex 5.36858 22.9678 3
      vertex 5.36858 7.0322 3
      vertex 5.88789 6.44316 3
    endloop
  endfacet
  facet normal -0 0 1
    outer loop
      vertex 4.88729 22.3473 3
      vertex 5.36858 7.0322 3
      vertex 5.36858 22.9678 3
    endloop
  endfacet
  facet normal 0 0 1
    outer loop
      vertex 4.88729 22.3473 3
      vertex 4.88729 7.65268 3
      vertex 5.36858 7.0322 3
    endloop
  endfacet
  facet normal -0 0 1
    outer loop
      vertex 4.4459 21.6978 3
      vertex 4.88729 7.65268 3
      vertex 4.88729 22.3473 3
    endloop
  endfacet
  facet normal 0 0 1
    outer loop
      vertex 4.4459 21.6978 3
      vertex 4.4459 8.30217 3
      vertex 4.88729 7.65268 3
    endloop
  endfacet
  facet normal -0 0 1
    outer loop
      vertex 4.04617 21.0219 3
      vertex 4.4459 8.30217 3
      vertex 4.4459 21.6978 3
    endloop
  endfacet
  facet normal 0 0 1
    outer loop
      vertex 4.04617 21.0219 3
      vertex 4.04617 8.97808 3
      vertex 4.4459 8.30217 3
    endloop
  endfacet
  facet normal -0 0 1
    outer loop
      vertex 3.68966 20.3222 3
      vertex 4.04617 8.97808 3
      vertex 4.04617 21.0219 3
    endloop
  endfacet
  facet normal 0 0 1
    outer loop
      vertex 3.68966 20.3222 3
      vertex 3.68966 9.67776 3
      vertex 4.04617 8.97808 3
    endloop
  endfacet
  facet normal -0 0 1
    outer loop
      vertex 3.37779 19.6016 3
      vertex 3.68966 9.67776 3
      vertex 3.68966 20.3222 3
    endloop
  endfacet
  facet normal 0 0 1
    outer loop
      vertex 3.37779 19.6016 3
      vertex 3.37779 10.3984 3
      vertex 3.68966 9.67776 3
    endloop
  endfacet
  facet normal -0 0 1
    outer loop
      vertex 3.11179 18.8627 3
      vertex 3.37779 10.3984 3
      vertex 3.37779 19.6016 3
    endloop
  endfacet
  facet normal 0 0 1
    outer loop
      vertex 3.11179 18.8627 3
      vertex 3.11179 11.1373 3
      vertex 3.37779 10.3984 3
    endloop
  endfacet
  facet normal -0 0 1
    outer loop
      vertex 2.89271 18.1086 3
      vertex 3.11179 11.1373 3
      vertex 3.11179 18.8627 3
    endloop
  endfacet
  facet normal 0 0 1
    outer loop
      vertex 2.89271 18.1086 3
      vertex 2.89271 11.8914 3
      vertex 3.11179 11.1373 3
    endloop
  endfacet
  facet normal -0 0 1
    outer loop
      vertex 2.72141 17.3423 3
      vertex 2.89271 11.8914 3
      vertex 2.89271 18.1086 3
    endloop
  endfacet
  facet normal 0 0 1
    outer loop
      vertex 2.72141 17.3423 3
      vertex 2.72141 12.6577 3
      vertex 2.89271 11.8914 3
    endloop
  endfacet
  facet normal -0 0 1
    outer loop
      vertex 2.59857 16.5667 3
      vertex 2.72141 12.6577 3
      vertex 2.72141 17.3423 3
    endloop
  endfacet
  facet normal 0 0 1
    outer loop
      vertex 2.59857 16.5667 3
      vertex 2.59857 13.4333 3
      vertex 2.72141 12.6577 3
    endloop
  endfacet
  facet normal -0 0 1
    outer loop
      vertex 2.52467 15.7849 3
      vertex 2.59857 13.4333 3
      vertex 2.59857 16.5667 3
    endloop
  endfacet
  facet normal 0 0 1
    outer loop
      vertex 2.52467 15.7849 3
      vertex 2.52467 14.2151 3
      vertex 2.59857 13.4333 3
    endloop
  endfacet
  facet normal 0 -0 1
    outer loop
      vertex 2.52467 14.2151 3
      vertex 2.52467 15.7849 3
      vertex 2.5 15 3
    endloop
  endfacet
  facet normal 0.940881 -0.338737 0
    outer loop
      vertex 3.11179 18.8627 43
      vertex 3.37779 19.6016 3
      vertex 3.37779 19.6016 43
    endloop
  endfacet
  facet normal 0.940881 -0.338737 0
    outer loop
      vertex 3.37779 19.6016 3
      vertex 3.11179 18.8627 43
      vertex 3.11179 18.8627 3
    endloop
  endfacet
  facet normal 0.960293 -0.278992 0
    outer loop
      vertex 2.89271 18.1086 43
      vertex 3.11179 18.8627 3
      vertex 3.11179 18.8627 43
    endloop
  endfacet
  facet normal 0.960293 -0.278992 0
    outer loop
      vertex 3.11179 18.8627 3
      vertex 2.89271 18.1086 43
      vertex 2.89271 18.1086 3
    endloop
  endfacet
  facet normal 0.987688 -0.156434 0
    outer loop
      vertex 2.59857 16.5667 43
      vertex 2.72141 17.3423 3
      vertex 2.72141 17.3423 43
    endloop
  endfacet
  facet normal 0.987688 -0.156434 0
    outer loop
      vertex 2.72141 17.3423 3
      vertex 2.59857 16.5667 43
      vertex 2.59857 16.5667 3
    endloop
  endfacet
  facet normal 0.999507 -0.0314107 0
    outer loop
      vertex 2.5 15 43
      vertex 2.52467 15.7849 3
      vertex 2.52467 15.7849 43
    endloop
  endfacet
  facet normal 0.999507 -0.0314107 0
    outer loop
      vertex 2.52467 15.7849 3
      vertex 2.5 15 43
      vertex 2.5 15 3
    endloop
  endfacet
  facet normal 0.45399 -0.891007 0
    outer loop
      vertex 8.97808 25.9538 3
      vertex 9.67776 26.3103 43
      vertex 8.97808 25.9538 43
    endloop
  endfacet
  facet normal 0.45399 -0.891007 0
    outer loop
      vertex 9.67776 26.3103 43
      vertex 8.97808 25.9538 3
      vertex 9.67776 26.3103 3
    endloop
  endfacet
  facet normal 0.612907 -0.790155 0
    outer loop
      vertex 7.0322 24.6314 3
      vertex 7.65268 25.1127 43
      vertex 7.0322 24.6314 43
    endloop
  endfacet
  facet normal 0.612907 -0.790155 0
    outer loop
      vertex 7.65268 25.1127 43
      vertex 7.0322 24.6314 3
      vertex 7.65268 25.1127 3
    endloop
  endfacet
  facet normal 0.27899 -0.960294 0
    outer loop
      vertex 11.1373 26.8882 3
      vertex 11.8914 27.1073 43
      vertex 11.1373 26.8882 43
    endloop
  endfacet
  facet normal 0.27899 -0.960294 0
    outer loop
      vertex 11.8914 27.1073 43
      vertex 11.1373 26.8882 3
      vertex 11.8914 27.1073 3
    endloop
  endfacet
  facet normal 0.0941106 -0.995562 0
    outer loop
      vertex 13.4333 27.4014 3
      vertex 14.2151 27.4753 43
      vertex 13.4333 27.4014 43
    endloop
  endfacet
  facet normal 0.0941106 -0.995562 0
    outer loop
      vertex 14.2151 27.4753 43
      vertex 13.4333 27.4014 3
      vertex 14.2151 27.4753 3
    endloop
  endfacet
  facet normal -0.999507 0.0314107 0
    outer loop
      vertex 27.4753 14.2151 3
      vertex 27.5 15 43
      vertex 27.5 15 3
    endloop
  endfacet
  facet normal -0.999507 0.0314107 0
    outer loop
      vertex 27.5 15 43
      vertex 27.4753 14.2151 3
      vertex 27.4753 14.2151 43
    endloop
  endfacet
  facet normal -0.094108 0.995562 0
    outer loop
      vertex 16.5667 2.59857 3
      vertex 15.7849 2.52467 43
      vertex 16.5667 2.59857 43
    endloop
  endfacet
  facet normal -0.094108 0.995562 0
    outer loop
      vertex 15.7849 2.52467 43
      vertex 16.5667 2.59857 3
      vertex 15.7849 2.52467 3
    endloop
  endfacet
  facet normal -0.218143 0.975917 0
    outer loop
      vertex 18.1086 2.89271 3
      vertex 17.3423 2.72141 43
      vertex 18.1086 2.89271 43
    endloop
  endfacet
  facet normal -0.218143 0.975917 0
    outer loop
      vertex 17.3423 2.72141 43
      vertex 18.1086 2.89271 3
      vertex 17.3423 2.72141 3
    endloop
  endfacet
  facet normal -0.397148 0.917755 0
    outer loop
      vertex 20.3222 3.68966 3
      vertex 19.6016 3.37779 43
      vertex 20.3222 3.68966 43
    endloop
  endfacet
  facet normal -0.397148 0.917755 0
    outer loop
      vertex 19.6016 3.37779 43
      vertex 20.3222 3.68966 3
      vertex 19.6016 3.37779 3
    endloop
  endfacet
  facet normal -0.338737 0.940881 0
    outer loop
      vertex 19.6016 3.37779 3
      vertex 18.8627 3.11179 43
      vertex 19.6016 3.37779 43
    endloop
  endfacet
  facet normal -0.338737 0.940881 0
    outer loop
      vertex 18.8627 3.11179 43
      vertex 19.6016 3.37779 3
      vertex 18.8627 3.11179 3
    endloop
  endfacet
  facet normal -0.707108 0.707106 0
    outer loop
      vertex 23.5568 5.88789 3
      vertex 24.1121 6.44316 43
      vertex 24.1121 6.44316 3
    endloop
  endfacet
  facet normal -0.707108 0.707106 0
    outer loop
      vertex 24.1121 6.44316 43
      vertex 23.5568 5.88789 3
      vertex 23.5568 5.88789 43
    endloop
  endfacet
  facet normal -0.453992 0.891006 0
    outer loop
      vertex 21.0219 4.04617 3
      vertex 20.3222 3.68966 43
      vertex 21.0219 4.04617 43
    endloop
  endfacet
  facet normal -0.453992 0.891006 0
    outer loop
      vertex 20.3222 3.68966 43
      vertex 21.0219 4.04617 3
      vertex 20.3222 3.68966 3
    endloop
  endfacet
  facet normal -0.917754 0.397149 0
    outer loop
      vertex 26.3103 9.67776 3
      vertex 26.6222 10.3984 43
      vertex 26.6222 10.3984 3
    endloop
  endfacet
  facet normal -0.917754 0.397149 0
    outer loop
      vertex 26.6222 10.3984 43
      vertex 26.3103 9.67776 3
      vertex 26.3103 9.67776 43
    endloop
  endfacet
  facet normal -0.995562 0.0941106 0
    outer loop
      vertex 27.4014 13.4333 3
      vertex 27.4753 14.2151 43
      vertex 27.4753 14.2151 3
    endloop
  endfacet
  facet normal -0.995562 0.0941106 0
    outer loop
      vertex 27.4753 14.2151 43
      vertex 27.4014 13.4333 3
      vertex 27.4014 13.4333 43
    endloop
  endfacet
  facet normal 0.397148 0.917755 -0
    outer loop
      vertex 10.3984 3.37779 3
      vertex 9.67776 3.68966 43
      vertex 10.3984 3.37779 43
    endloop
  endfacet
  facet normal 0.397148 0.917755 0
    outer loop
      vertex 9.67776 3.68966 43
      vertex 10.3984 3.37779 3
      vertex 9.67776 3.68966 3
    endloop
  endfacet
  facet normal 0.0314107 0.999507 -0
    outer loop
      vertex 15 2.5 3
      vertex 14.2151 2.52467 43
      vertex 15 2.5 43
    endloop
  endfacet
  facet normal 0.0314107 0.999507 0
    outer loop
      vertex 14.2151 2.52467 43
      vertex 15 2.5 3
      vertex 14.2151 2.52467 3
    endloop
  endfacet
  facet normal 0.661312 0.750111 -0
    outer loop
      vertex 7.0322 5.36858 3
      vertex 6.44316 5.88789 43
      vertex 7.0322 5.36858 43
    endloop
  endfacet
  facet normal 0.661312 0.750111 0
    outer loop
      vertex 6.44316 5.88789 43
      vertex 7.0322 5.36858 3
      vertex 6.44316 5.88789 3
    endloop
  endfacet
  facet normal 0.891006 0.453991 0
    outer loop
      vertex 4.04617 8.97808 43
      vertex 3.68966 9.67776 3
      vertex 3.68966 9.67776 43
    endloop
  endfacet
  facet normal 0.891006 0.453991 0
    outer loop
      vertex 3.68966 9.67776 3
      vertex 4.04617 8.97808 43
      vertex 4.04617 8.97808 3
    endloop
  endfacet
  facet normal 0.860742 0.509042 0
    outer loop
      vertex 4.4459 8.30217 43
      vertex 4.04617 8.97808 3
      vertex 4.04617 8.97808 43
    endloop
  endfacet
  facet normal 0.860742 0.509042 0
    outer loop
      vertex 4.04617 8.97808 3
      vertex 4.4459 8.30217 43
      vertex 4.4459 8.30217 3
    endloop
  endfacet
  facet normal 0.827081 0.562083 0
    outer loop
      vertex 4.88729 7.65268 43
      vertex 4.4459 8.30217 3
      vertex 4.4459 8.30217 43
    endloop
  endfacet
  facet normal 0.827081 0.562083 0
    outer loop
      vertex 4.4459 8.30217 3
      vertex 4.88729 7.65268 43
      vertex 4.88729 7.65268 3
    endloop
  endfacet
  facet normal 0.960293 0.278992 0
    outer loop
      vertex 3.11179 11.1373 43
      vertex 2.89271 11.8914 3
      vertex 2.89271 11.8914 43
    endloop
  endfacet
  facet normal 0.960293 0.278992 0
    outer loop
      vertex 2.89271 11.8914 3
      vertex 3.11179 11.1373 43
      vertex 3.11179 11.1373 3
    endloop
  endfacet
  facet normal 0.975917 0.218143 0
    outer loop
      vertex 2.89271 11.8914 43
      vertex 2.72141 12.6577 3
      vertex 2.72141 12.6577 43
    endloop
  endfacet
  facet normal 0.975917 0.218143 0
    outer loop
      vertex 2.72141 12.6577 3
      vertex 2.89271 11.8914 43
      vertex 2.89271 11.8914 3
    endloop
  endfacet
  facet normal 0.995562 0.0941082 0
    outer loop
      vertex 2.59857 13.4333 43
      vertex 2.52467 14.2151 3
      vertex 2.52467 14.2151 43
    endloop
  endfacet
  facet normal 0.995562 0.0941082 0
    outer loop
      vertex 2.52467 14.2151 3
      vertex 2.59857 13.4333 43
      vertex 2.59857 13.4333 3
    endloop
  endfacet
  facet normal -0.707107 -0.707107 0
    outer loop
      vertex 24.1121 23.5568 3
      vertex 23.5568 24.1121 43
      vertex 23.5568 24.1121 3
    endloop
  endfacet
  facet normal -0.707107 -0.707107 0
    outer loop
      vertex 23.5568 24.1121 43
      vertex 24.1121 23.5568 3
      vertex 24.1121 23.5568 43
    endloop
  endfacet
  facet normal -0.827081 -0.562082 0
    outer loop
      vertex 25.5541 21.6978 3
      vertex 25.1127 22.3473 43
      vertex 25.1127 22.3473 3
    endloop
  endfacet
  facet normal -0.827081 -0.562082 0
    outer loop
      vertex 25.1127 22.3473 43
      vertex 25.5541 21.6978 3
      vertex 25.5541 21.6978 43
    endloop
  endfacet
  facet normal -0.397149 -0.917754 0
    outer loop
      vertex 19.6016 26.6222 3
      vertex 20.3222 26.3103 43
      vertex 19.6016 26.6222 43
    endloop
  endfacet
  facet normal -0.397149 -0.917754 -0
    outer loop
      vertex 20.3222 26.3103 43
      vertex 19.6016 26.6222 3
      vertex 20.3222 26.3103 3
    endloop
  endfacet
  facet normal -0.562082 -0.827081 0
    outer loop
      vertex 21.6978 25.5541 3
      vertex 22.3473 25.1127 43
      vertex 21.6978 25.5541 43
    endloop
  endfacet
  facet normal -0.562082 -0.827081 -0
    outer loop
      vertex 22.3473 25.1127 43
      vertex 21.6978 25.5541 3
      vertex 22.3473 25.1127 3
    endloop
  endfacet
  facet normal 0.860742 -0.509041 0
    outer loop
      vertex 4.04617 21.0219 43
      vertex 4.4459 21.6978 3
      vertex 4.4459 21.6978 43
    endloop
  endfacet
  facet normal 0.860742 -0.509041 0
    outer loop
      vertex 4.4459 21.6978 3
      vertex 4.04617 21.0219 43
      vertex 4.04617 21.0219 3
    endloop
  endfacet
  facet normal 0.917755 -0.397148 0
    outer loop
      vertex 3.37779 19.6016 43
      vertex 3.68966 20.3222 3
      vertex 3.68966 20.3222 43
    endloop
  endfacet
  facet normal 0.917755 -0.397148 0
    outer loop
      vertex 3.68966 20.3222 3
      vertex 3.37779 19.6016 43
      vertex 3.37779 19.6016 3
    endloop
  endfacet
  facet normal 0.999507 0.0314107 0
    outer loop
      vertex 2.52467 14.2151 43
      vertex 2.5 15 3
      vertex 2.5 15 43
    endloop
  endfacet
  facet normal 0.999507 0.0314107 0
    outer loop
      vertex 2.5 15 3
      vertex 2.52467 14.2151 43
      vertex 2.52467 14.2151 3
    endloop
  endfacet
  facet normal 0.707106 -0.707108 0
    outer loop
      vertex 5.88789 23.5568 3
      vertex 6.44316 24.1121 43
      vertex 5.88789 23.5568 43
    endloop
  endfacet
  facet normal 0.707106 -0.707108 0
    outer loop
      vertex 6.44316 24.1121 43
      vertex 5.88789 23.5568 3
      vertex 6.44316 24.1121 3
    endloop
  endfacet
  facet normal -0.156434 0.987688 0
    outer loop
      vertex 17.3423 2.72141 3
      vertex 16.5667 2.59857 43
      vertex 17.3423 2.72141 43
    endloop
  endfacet
  facet normal -0.156434 0.987688 0
    outer loop
      vertex 16.5667 2.59857 43
      vertex 17.3423 2.72141 3
      vertex 16.5667 2.59857 3
    endloop
  endfacet
  facet normal -0.509041 0.860742 0
    outer loop
      vertex 21.6978 4.4459 3
      vertex 21.0219 4.04617 43
      vertex 21.6978 4.4459 43
    endloop
  endfacet
  facet normal -0.509041 0.860742 0
    outer loop
      vertex 21.0219 4.04617 43
      vertex 21.6978 4.4459 3
      vertex 21.0219 4.04617 3
    endloop
  endfacet
  facet normal -0.612906 0.790156 0
    outer loop
      vertex 22.9678 5.36858 3
      vertex 22.3473 4.88729 43
      vertex 22.9678 5.36858 43
    endloop
  endfacet
  facet normal -0.612906 0.790156 0
    outer loop
      vertex 22.3473 4.88729 43
      vertex 22.9678 5.36858 3
      vertex 22.3473 4.88729 3
    endloop
  endfacet
  facet normal -0.860742 0.509042 0
    outer loop
      vertex 25.5541 8.30217 3
      vertex 25.9538 8.97808 43
      vertex 25.9538 8.97808 3
    endloop
  endfacet
  facet normal -0.860742 0.509042 0
    outer loop
      vertex 25.9538 8.97808 43
      vertex 25.5541 8.30217 3
      vertex 25.5541 8.30217 43
    endloop
  endfacet
  facet normal -0.827081 0.562082 0
    outer loop
      vertex 25.1127 7.65268 3
      vertex 25.5541 8.30217 43
      vertex 25.5541 8.30217 3
    endloop
  endfacet
  facet normal -0.827081 0.562082 0
    outer loop
      vertex 25.5541 8.30217 43
      vertex 25.1127 7.65268 3
      vertex 25.1127 7.65268 43
    endloop
  endfacet
  facet normal -0.975916 0.218145 0
    outer loop
      vertex 27.1073 11.8914 3
      vertex 27.2786 12.6577 43
      vertex 27.2786 12.6577 3
    endloop
  endfacet
  facet normal -0.975916 0.218145 0
    outer loop
      vertex 27.2786 12.6577 43
      vertex 27.1073 11.8914 3
      vertex 27.1073 11.8914 43
    endloop
  endfacet
  facet normal 0.509042 0.860742 -0
    outer loop
      vertex 8.97808 4.04617 3
      vertex 8.30217 4.4459 43
      vertex 8.97808 4.04617 43
    endloop
  endfacet
  facet normal 0.509042 0.860742 0
    outer loop
      vertex 8.30217 4.4459 43
      vertex 8.97808 4.04617 3
      vertex 8.30217 4.4459 3
    endloop
  endfacet
  facet normal 0.156434 0.987688 -0
    outer loop
      vertex 13.4333 2.59857 3
      vertex 12.6577 2.72141 43
      vertex 13.4333 2.59857 43
    endloop
  endfacet
  facet normal 0.156434 0.987688 0
    outer loop
      vertex 12.6577 2.72141 43
      vertex 13.4333 2.59857 3
      vertex 12.6577 2.72141 3
    endloop
  endfacet
  facet normal 0.790155 0.612907 0
    outer loop
      vertex 5.36858 7.0322 43
      vertex 4.88729 7.65268 3
      vertex 4.88729 7.65268 43
    endloop
  endfacet
  facet normal 0.790155 0.612907 0
    outer loop
      vertex 4.88729 7.65268 3
      vertex 5.36858 7.0322 43
      vertex 5.36858 7.0322 3
    endloop
  endfacet
  facet normal 0.940881 0.338737 0
    outer loop
      vertex 3.37779 10.3984 43
      vertex 3.11179 11.1373 3
      vertex 3.11179 11.1373 43
    endloop
  endfacet
  facet normal 0.940881 0.338737 0
    outer loop
      vertex 3.11179 11.1373 3
      vertex 3.37779 10.3984 43
      vertex 3.37779 10.3984 3
    endloop
  endfacet
  facet normal 0.987688 0.156434 0
    outer loop
      vertex 2.72141 12.6577 43
      vertex 2.59857 13.4333 3
      vertex 2.59857 13.4333 43
    endloop
  endfacet
  facet normal 0.987688 0.156434 0
    outer loop
      vertex 2.59857 13.4333 3
      vertex 2.72141 12.6577 43
      vertex 2.72141 12.6577 3
    endloop
  endfacet
  facet normal -0.987689 0.156432 0
    outer loop
      vertex 27.2786 12.6577 3
      vertex 27.4014 13.4333 43
      vertex 27.4014 13.4333 3
    endloop
  endfacet
  facet normal -0.987689 0.156432 0
    outer loop
      vertex 27.4014 13.4333 43
      vertex 27.2786 12.6577 3
      vertex 27.2786 12.6577 43
    endloop
  endfacet
endsolid OpenSCAD_Model
