solid OpenSCAD_Model
  facet normal -0.8 0.6 0
    outer loop
      vertex 16 0 0
      vertex 17.5 2 10
      vertex 17.5 2 0
    endloop
  endfacet
  facet normal -0.8 0.6 0
    outer loop
      vertex 17.5 2 10
      vertex 16 0 0
      vertex 16 0 10
    endloop
  endfacet
  facet normal 0 -1 0
    outer loop
      vertex 106 0 0
      vertex 120 0 10
      vertex 106 0 10
    endloop
  endfacet
  facet normal 0 -1 -0
    outer loop
      vertex 120 0 10
      vertex 106 0 0
      vertex 120 0 0
    endloop
  endfacet
  facet normal 0 -1 0
    outer loop
      vertex 0 0 10
      vertex 7.5 0 3
      vertex 7.5 0 10
    endloop
  endfacet
  facet normal 0 -1 0
    outer loop
      vertex 14 0 0
      vertex 7.5 0 3
      vertex 0 0 0
    endloop
  endfacet
  facet normal 0 -1 0
    outer loop
      vertex 0 0 0
      vertex 7.5 0 3
      vertex 0 0 10
    endloop
  endfacet
  facet normal 0 -1 0
    outer loop
      vertex 10 0 3
      vertex 14 0 10
      vertex 10 0 10
    endloop
  endfacet
  facet normal 0 -1 0
    outer loop
      vertex 10 0 3
      vertex 14 0 0
      vertex 14 0 10
    endloop
  endfacet
  facet normal 0 -1 0
    outer loop
      vertex 7.5 0 3
      vertex 14 0 0
      vertex 10 0 3
    endloop
  endfacet
  facet normal 0 -1 0
    outer loop
      vertex 76 0 0
      vertex 104 0 10
      vertex 76 0 10
    endloop
  endfacet
  facet normal 0 -1 -0
    outer loop
      vertex 104 0 10
      vertex 76 0 0
      vertex 104 0 0
    endloop
  endfacet
  facet normal 0 -1 0
    outer loop
      vertex 46 0 10
      vertex 62 0 3
      vertex 62 0 10
    endloop
  endfacet
  facet normal 0 -1 0
    outer loop
      vertex 74 0 0
      vertex 62 0 3
      vertex 46 0 0
    endloop
  endfacet
  facet normal 0 -1 0
    outer loop
      vertex 46 0 0
      vertex 62 0 3
      vertex 46 0 10
    endloop
  endfacet
  facet normal 0 -1 0
    outer loop
      vertex 64.5 0 3
      vertex 74 0 10
      vertex 64.5 0 10
    endloop
  endfacet
  facet normal 0 -1 0
    outer loop
      vertex 64.5 0 3
      vertex 74 0 0
      vertex 74 0 10
    endloop
  endfacet
  facet normal 0 -1 0
    outer loop
      vertex 62 0 3
      vertex 74 0 0
      vertex 64.5 0 3
    endloop
  endfacet
  facet normal 0 -1 0
    outer loop
      vertex 16 0 0
      vertex 44 0 10
      vertex 16 0 10
    endloop
  endfacet
  facet normal 0 -1 -0
    outer loop
      vertex 44 0 10
      vertex 16 0 0
      vertex 44 0 0
    endloop
  endfacet
  facet normal 0 -1 0
    outer loop
      vertex 12.5 2 0
      vertex 17.5 2 10
      vertex 12.5 2 10
    endloop
  endfacet
  facet normal 0 -1 -0
    outer loop
      vertex 17.5 2 10
      vertex 12.5 2 0
      vertex 17.5 2 0
    endloop
  endfacet
  facet normal 0 0 -1
    outer loop
      vertex 107.5 2 0
      vertex 120 14 0
      vertex 120 0 0
    endloop
  endfacet
  facet normal -0 0 -1
    outer loop
      vertex 120 14 0
      vertex 107.5 2 0
      vertex 120 16 0
    endloop
  endfacet
  facet normal 0 0 -1
    outer loop
      vertex 102.5 2 0
      vertex 120 16 0
      vertex 107.5 2 0
    endloop
  endfacet
  facet normal -0 0 -1
    outer loop
      vertex 120 16 0
      vertex 102.5 2 0
      vertex 120 44 0
    endloop
  endfacet
  facet normal 0 -0 -1
    outer loop
      vertex 104 60 0
      vertex 120 44 0
      vertex 102.5 2 0
    endloop
  endfacet
  facet normal 0 -0 -1
    outer loop
      vertex 107.5 2 0
      vertex 120 0 0
      vertex 106 0 0
    endloop
  endfacet
  facet normal 0 0 -1
    outer loop
      vertex 120 14 0
      vertex 122 17.5 0
      vertex 122 12.5 0
    endloop
  endfacet
  facet normal 0 0 -1
    outer loop
      vertex 122 17.5 0
      vertex 120 14 0
      vertex 120 16 0
    endloop
  endfacet
  facet normal 0 0 -1
    outer loop
      vertex 120 44 0
      vertex 122 47.5 0
      vertex 122 42.5 0
    endloop
  endfacet
  facet normal 0 0 -1
    outer loop
      vertex 122 47.5 0
      vertex 120 44 0
      vertex 120 46 0
    endloop
  endfacet
  facet normal 0 0 -1
    outer loop
      vertex 120 46 0
      vertex 106 60 0
      vertex 120 60 0
    endloop
  endfacet
  facet normal 0 0 -1
    outer loop
      vertex 120 46 0
      vertex 104 60 0
      vertex 106 60 0
    endloop
  endfacet
  facet normal 0 0 -1
    outer loop
      vertex 120 44 0
      vertex 104 60 0
      vertex 120 46 0
    endloop
  endfacet
  facet normal 0 0 -1
    outer loop
      vertex 77.5 2 0
      vertex 104 60 0
      vertex 102.5 2 0
    endloop
  endfacet
  facet normal 0 0 -1
    outer loop
      vertex 77.5 2 0
      vertex 76 60 0
      vertex 104 60 0
    endloop
  endfacet
  facet normal 0 0 -1
    outer loop
      vertex 77.5 2 0
      vertex 74 60 0
      vertex 76 60 0
    endloop
  endfacet
  facet normal 0 0 -1
    outer loop
      vertex 72.5 2 0
      vertex 74 60 0
      vertex 77.5 2 0
    endloop
  endfacet
  facet normal 0 0 -1
    outer loop
      vertex 47.5 2 0
      vertex 74 60 0
      vertex 72.5 2 0
    endloop
  endfacet
  facet normal 0 0 -1
    outer loop
      vertex 47.5 2 0
      vertex 46 60 0
      vertex 74 60 0
    endloop
  endfacet
  facet normal 0 0 -1
    outer loop
      vertex 47.5 2 0
      vertex 44 60 0
      vertex 46 60 0
    endloop
  endfacet
  facet normal 0 0 -1
    outer loop
      vertex 42.5 2 0
      vertex 44 60 0
      vertex 47.5 2 0
    endloop
  endfacet
  facet normal 0 0 -1
    outer loop
      vertex 2 42.5 0
      vertex 42.5 2 0
      vertex 17.5 2 0
    endloop
  endfacet
  facet normal 0 0 -1
    outer loop
      vertex 42.5 2 0
      vertex 2 42.5 0
      vertex 44 60 0
    endloop
  endfacet
  facet normal -0 0 -1
    outer loop
      vertex 44 60 0
      vertex 2 42.5 0
      vertex 16 60 0
    endloop
  endfacet
  facet normal 0 0 -1
    outer loop
      vertex 2 17.5 0
      vertex 17.5 2 0
      vertex 12.5 2 0
    endloop
  endfacet
  facet normal 0 0 -1
    outer loop
      vertex 2 17.5 0
      vertex 12.5 2 0
      vertex 2 12.5 0
    endloop
  endfacet
  facet normal 0 0 -1
    outer loop
      vertex 17.5 2 0
      vertex 2 17.5 0
      vertex 2 42.5 0
    endloop
  endfacet
  facet normal 0 0 -1
    outer loop
      vertex 2 47.5 0
      vertex 16 60 0
      vertex 2 42.5 0
    endloop
  endfacet
  facet normal -0 0 -1
    outer loop
      vertex 16 60 0
      vertex 2 47.5 0
      vertex 14 60 0
    endloop
  endfacet
  facet normal 0 0 -1
    outer loop
      vertex 0 60 0
      vertex 2 47.5 0
      vertex 0 46 0
    endloop
  endfacet
  facet normal 0 0 -1
    outer loop
      vertex 2 47.5 0
      vertex 0 60 0
      vertex 14 60 0
    endloop
  endfacet
  facet normal 0 0 -1
    outer loop
      vertex 104 0 0
      vertex 77.5 2 0
      vertex 102.5 2 0
    endloop
  endfacet
  facet normal 0 -0 -1
    outer loop
      vertex 77.5 2 0
      vertex 104 0 0
      vertex 76 0 0
    endloop
  endfacet
  facet normal 0 0 -1
    outer loop
      vertex 104 60 0
      vertex 107.5 62 0
      vertex 106 60 0
    endloop
  endfacet
  facet normal -0 0 -1
    outer loop
      vertex 107.5 62 0
      vertex 104 60 0
      vertex 102.5 62 0
    endloop
  endfacet
  facet normal 0 0 -1
    outer loop
      vertex 74 0 0
      vertex 47.5 2 0
      vertex 72.5 2 0
    endloop
  endfacet
  facet normal 0 -0 -1
    outer loop
      vertex 47.5 2 0
      vertex 74 0 0
      vertex 46 0 0
    endloop
  endfacet
  facet normal 0 0 -1
    outer loop
      vertex 74 60 0
      vertex 77.5 62 0
      vertex 76 60 0
    endloop
  endfacet
  facet normal -0 0 -1
    outer loop
      vertex 77.5 62 0
      vertex 74 60 0
      vertex 72.5 62 0
    endloop
  endfacet
  facet normal 0 0 -1
    outer loop
      vertex 44 0 0
      vertex 17.5 2 0
      vertex 42.5 2 0
    endloop
  endfacet
  facet normal 0 -0 -1
    outer loop
      vertex 17.5 2 0
      vertex 44 0 0
      vertex 16 0 0
    endloop
  endfacet
  facet normal 0 0 -1
    outer loop
      vertex 44 60 0
      vertex 47.5 62 0
      vertex 46 60 0
    endloop
  endfacet
  facet normal -0 0 -1
    outer loop
      vertex 47.5 62 0
      vertex 44 60 0
      vertex 42.5 62 0
    endloop
  endfacet
  facet normal 0 0 -1
    outer loop
      vertex 0 16 0
      vertex 2 42.5 0
      vertex 2 17.5 0
    endloop
  endfacet
  facet normal -0 0 -1
    outer loop
      vertex 2 42.5 0
      vertex 0 16 0
      vertex 0 44 0
    endloop
  endfacet
  facet normal 0 0 -1
    outer loop
      vertex 0 0 0
      vertex 12.5 2 0
      vertex 14 0 0
    endloop
  endfacet
  facet normal -0 0 -1
    outer loop
      vertex 12.5 2 0
      vertex 0 0 0
      vertex 2 12.5 0
    endloop
  endfacet
  facet normal -0 0 -1
    outer loop
      vertex 2 12.5 0
      vertex 0 0 0
      vertex 0 14 0
    endloop
  endfacet
  facet normal 0 0 -1
    outer loop
      vertex 14 60 0
      vertex 17.5 62 0
      vertex 16 60 0
    endloop
  endfacet
  facet normal -0 0 -1
    outer loop
      vertex 17.5 62 0
      vertex 14 60 0
      vertex 12.5 62 0
    endloop
  endfacet
  facet normal 0.8 0.6 0
    outer loop
      vertex 14 0 10
      vertex 12.5 2 0
      vertex 12.5 2 10
    endloop
  endfacet
  facet normal 0.8 0.6 0
    outer loop
      vertex 12.5 2 0
      vertex 14 0 10
      vertex 14 0 0
    endloop
  endfacet
  facet normal 0 0 1
    outer loop
      vertex 77.5 62 10
      vertex 74 60 10
      vertex 76 60 10
    endloop
  endfacet
  facet normal 0 -0 1
    outer loop
      vertex 74 60 10
      vertex 77.5 62 10
      vertex 72.5 62 10
    endloop
  endfacet
  facet normal 0 0 1
    outer loop
      vertex 107.5 62 10
      vertex 104 60 10
      vertex 106 60 10
    endloop
  endfacet
  facet normal 0 -0 1
    outer loop
      vertex 104 60 10
      vertex 107.5 62 10
      vertex 102.5 62 10
    endloop
  endfacet
  facet normal 0 0 1
    outer loop
      vertex 110 10 10
      vertex 102.5 2 10
      vertex 107.5 2 10
    endloop
  endfacet
  facet normal 0 -0 1
    outer loop
      vertex 102.5 2 10
      vertex 110 10 10
      vertex 80 10 10
    endloop
  endfacet
  facet normal -0 0 1
    outer loop
      vertex 110 50 10
      vertex 120 46 10
      vertex 120 60 10
    endloop
  endfacet
  facet normal 0 0 1
    outer loop
      vertex 120 46 10
      vertex 110 50 10
      vertex 120 44 10
    endloop
  endfacet
  facet normal 0 0 1
    outer loop
      vertex 120 44 10
      vertex 110 50 10
      vertex 120 16 10
    endloop
  endfacet
  facet normal 0 0 1
    outer loop
      vertex 110 10 10
      vertex 120 16 10
      vertex 110 50 10
    endloop
  endfacet
  facet normal 0 0 1
    outer loop
      vertex 120 16 10
      vertex 110 10 10
      vertex 120 14 10
    endloop
  endfacet
  facet normal -0 0 1
    outer loop
      vertex 106 60 10
      vertex 110 50 10
      vertex 120 60 10
    endloop
  endfacet
  facet normal -0 0 1
    outer loop
      vertex 104 60 10
      vertex 110 50 10
      vertex 106 60 10
    endloop
  endfacet
  facet normal 0 0 1
    outer loop
      vertex 104 60 10
      vertex 80 50 10
      vertex 110 50 10
    endloop
  endfacet
  facet normal 0 0 1
    outer loop
      vertex 64.5 0 10
      vertex 80 10 10
      vertex 80 50 10
    endloop
  endfacet
  facet normal -0 0 1
    outer loop
      vertex 76 60 10
      vertex 80 50 10
      vertex 104 60 10
    endloop
  endfacet
  facet normal -0 0 1
    outer loop
      vertex 74 60 10
      vertex 80 50 10
      vertex 76 60 10
    endloop
  endfacet
  facet normal -0 0 1
    outer loop
      vertex 64.5 60 10
      vertex 80 50 10
      vertex 74 60 10
    endloop
  endfacet
  facet normal 0 0 1
    outer loop
      vertex 80 10 10
      vertex 72.5 2 10
      vertex 77.5 2 10
    endloop
  endfacet
  facet normal 0 0 1
    outer loop
      vertex 64.5 0 10
      vertex 80 50 10
      vertex 64.5 60 10
    endloop
  endfacet
  facet normal -0 0 1
    outer loop
      vertex 120 46 10
      vertex 122 42.5 10
      vertex 122 47.5 10
    endloop
  endfacet
  facet normal 0 0 1
    outer loop
      vertex 122 42.5 10
      vertex 120 46 10
      vertex 120 44 10
    endloop
  endfacet
  facet normal -0 0 1
    outer loop
      vertex 120 16 10
      vertex 122 12.5 10
      vertex 122 17.5 10
    endloop
  endfacet
  facet normal 0 0 1
    outer loop
      vertex 122 12.5 10
      vertex 120 16 10
      vertex 120 14 10
    endloop
  endfacet
  facet normal 0 0 1
    outer loop
      vertex 120 14 10
      vertex 110 10 10
      vertex 120 0 10
    endloop
  endfacet
  facet normal -0 0 1
    outer loop
      vertex 107.5 2 10
      vertex 120 0 10
      vertex 110 10 10
    endloop
  endfacet
  facet normal 0 0 1
    outer loop
      vertex 120 0 10
      vertex 107.5 2 10
      vertex 106 0 10
    endloop
  endfacet
  facet normal 0 0 1
    outer loop
      vertex 77.5 2 10
      vertex 102.5 2 10
      vertex 80 10 10
    endloop
  endfacet
  facet normal 0 0 1
    outer loop
      vertex 102.5 2 10
      vertex 77.5 2 10
      vertex 104 0 10
    endloop
  endfacet
  facet normal 0 0 1
    outer loop
      vertex 104 0 10
      vertex 77.5 2 10
      vertex 76 0 10
    endloop
  endfacet
  facet normal 0 0 1
    outer loop
      vertex 72.5 2 10
      vertex 64.5 0 10
      vertex 74 0 10
    endloop
  endfacet
  facet normal 0 0 1
    outer loop
      vertex 80 10 10
      vertex 64.5 0 10
      vertex 72.5 2 10
    endloop
  endfacet
  facet normal 0 0 1
    outer loop
      vertex 17.5 62 10
      vertex 14 60 10
      vertex 16 60 10
    endloop
  endfacet
  facet normal 0 -0 1
    outer loop
      vertex 14 60 10
      vertex 17.5 62 10
      vertex 12.5 62 10
    endloop
  endfacet
  facet normal -0 0 1
    outer loop
      vertex 17.5 2 10
      vertex 44 0 10
      vertex 42.5 2 10
    endloop
  endfacet
  facet normal 0 0 1
    outer loop
      vertex 44 0 10
      vertex 17.5 2 10
      vertex 16 0 10
    endloop
  endfacet
  facet normal 0 0 1
    outer loop
      vertex 47.5 62 10
      vertex 44 60 10
      vertex 46 60 10
    endloop
  endfacet
  facet normal 0 -0 1
    outer loop
      vertex 44 60 10
      vertex 47.5 62 10
      vertex 42.5 62 10
    endloop
  endfacet
  facet normal 0 0 1
    outer loop
      vertex 62 60 10
      vertex 47.5 2 10
      vertex 62 0 10
    endloop
  endfacet
  facet normal -0 0 1
    outer loop
      vertex 46 60 10
      vertex 47.5 2 10
      vertex 62 60 10
    endloop
  endfacet
  facet normal -0 0 1
    outer loop
      vertex 44 60 10
      vertex 47.5 2 10
      vertex 46 60 10
    endloop
  endfacet
  facet normal 0 0 1
    outer loop
      vertex 44 60 10
      vertex 42.5 2 10
      vertex 47.5 2 10
    endloop
  endfacet
  facet normal 0 0 1
    outer loop
      vertex 44 60 10
      vertex 17.5 2 10
      vertex 42.5 2 10
    endloop
  endfacet
  facet normal -0 0 1
    outer loop
      vertex 16 60 10
      vertex 17.5 2 10
      vertex 44 60 10
    endloop
  endfacet
  facet normal -0 0 1
    outer loop
      vertex 14 60 10
      vertex 17.5 2 10
      vertex 16 60 10
    endloop
  endfacet
  facet normal 0 0 1
    outer loop
      vertex 14 60 10
      vertex 12.5 2 10
      vertex 17.5 2 10
    endloop
  endfacet
  facet normal 0 -0 1
    outer loop
      vertex 12.5 2 10
      vertex 14 60 10
      vertex 10 60 10
    endloop
  endfacet
  facet normal 0 0 1
    outer loop
      vertex 62 0 10
      vertex 47.5 2 10
      vertex 46 0 10
    endloop
  endfacet
  facet normal 0 0 1
    outer loop
      vertex 12.5 2 10
      vertex 10 0 10
      vertex 14 0 10
    endloop
  endfacet
  facet normal 0 0 1
    outer loop
      vertex 10 0 10
      vertex 12.5 2 10
      vertex 10 60 10
    endloop
  endfacet
  facet normal 0 0 1
    outer loop
      vertex 0 44 10
      vertex 2 17.5 10
      vertex 2 42.5 10
    endloop
  endfacet
  facet normal 0 0 1
    outer loop
      vertex 2 17.5 10
      vertex 0 44 10
      vertex 0 16 10
    endloop
  endfacet
  facet normal 0 0 1
    outer loop
      vertex 2 42.5 10
      vertex 7.5 60 10
      vertex 2 47.5 10
    endloop
  endfacet
  facet normal -0 0 1
    outer loop
      vertex 0 60 10
      vertex 2 47.5 10
      vertex 7.5 60 10
    endloop
  endfacet
  facet normal 0 0 1
    outer loop
      vertex 2 47.5 10
      vertex 0 60 10
      vertex 0 46 10
    endloop
  endfacet
  facet normal 0 0 1
    outer loop
      vertex 7.5 60 10
      vertex 2 42.5 10
      vertex 7.5 0 10
    endloop
  endfacet
  facet normal -0 0 1
    outer loop
      vertex 2 17.5 10
      vertex 7.5 0 10
      vertex 2 42.5 10
    endloop
  endfacet
  facet normal -0 0 1
    outer loop
      vertex 2 12.5 10
      vertex 7.5 0 10
      vertex 2 17.5 10
    endloop
  endfacet
  facet normal 0 0 1
    outer loop
      vertex 0 0 10
      vertex 2 12.5 10
      vertex 0 14 10
    endloop
  endfacet
  facet normal 0 0 1
    outer loop
      vertex 2 12.5 10
      vertex 0 0 10
      vertex 7.5 0 10
    endloop
  endfacet
  facet normal -0.8 0.6 0
    outer loop
      vertex 46 0 0
      vertex 47.5 2 10
      vertex 47.5 2 0
    endloop
  endfacet
  facet normal -0.8 0.6 0
    outer loop
      vertex 47.5 2 10
      vertex 46 0 0
      vertex 46 0 10
    endloop
  endfacet
  facet normal 0 -1 0
    outer loop
      vertex 42.5 2 0
      vertex 47.5 2 10
      vertex 42.5 2 10
    endloop
  endfacet
  facet normal 0 -1 -0
    outer loop
      vertex 47.5 2 10
      vertex 42.5 2 0
      vertex 47.5 2 0
    endloop
  endfacet
  facet normal 0.8 0.6 0
    outer loop
      vertex 44 0 10
      vertex 42.5 2 0
      vertex 42.5 2 10
    endloop
  endfacet
  facet normal 0.8 0.6 0
    outer loop
      vertex 42.5 2 0
      vertex 44 0 10
      vertex 44 0 0
    endloop
  endfacet
  facet normal -0.8 0.6 0
    outer loop
      vertex 76 0 0
      vertex 77.5 2 10
      vertex 77.5 2 0
    endloop
  endfacet
  facet normal -0.8 0.6 0
    outer loop
      vertex 77.5 2 10
      vertex 76 0 0
      vertex 76 0 10
    endloop
  endfacet
  facet normal 0 -1 0
    outer loop
      vertex 72.5 2 0
      vertex 77.5 2 10
      vertex 72.5 2 10
    endloop
  endfacet
  facet normal 0 -1 -0
    outer loop
      vertex 77.5 2 10
      vertex 72.5 2 0
      vertex 77.5 2 0
    endloop
  endfacet
  facet normal 0.8 0.6 0
    outer loop
      vertex 74 0 10
      vertex 72.5 2 0
      vertex 72.5 2 10
    endloop
  endfacet
  facet normal 0.8 0.6 0
    outer loop
      vertex 72.5 2 0
      vertex 74 0 10
      vertex 74 0 0
    endloop
  endfacet
  facet normal -0.8 0.6 0
    outer loop
      vertex 106 0 0
      vertex 107.5 2 10
      vertex 107.5 2 0
    endloop
  endfacet
  facet normal -0.8 0.6 0
    outer loop
      vertex 107.5 2 10
      vertex 106 0 0
      vertex 106 0 10
    endloop
  endfacet
  facet normal 0 -1 0
    outer loop
      vertex 102.5 2 0
      vertex 107.5 2 10
      vertex 102.5 2 10
    endloop
  endfacet
  facet normal 0 -1 -0
    outer loop
      vertex 107.5 2 10
      vertex 102.5 2 0
      vertex 107.5 2 0
    endloop
  endfacet
  facet normal 0.8 0.6 0
    outer loop
      vertex 104 0 10
      vertex 102.5 2 0
      vertex 102.5 2 10
    endloop
  endfacet
  facet normal 0.8 0.6 0
    outer loop
      vertex 102.5 2 0
      vertex 104 0 10
      vertex 104 0 0
    endloop
  endfacet
  facet normal 0.6 0.8 -0
    outer loop
      vertex 2 12.5 0
      vertex 0 14 10
      vertex 2 12.5 10
    endloop
  endfacet
  facet normal 0.6 0.8 0
    outer loop
      vertex 0 14 10
      vertex 2 12.5 0
      vertex 0 14 0
    endloop
  endfacet
  facet normal 0.6 -0.8 0
    outer loop
      vertex 0 16 0
      vertex 2 17.5 10
      vertex 0 16 10
    endloop
  endfacet
  facet normal 0.6 -0.8 0
    outer loop
      vertex 2 17.5 10
      vertex 0 16 0
      vertex 2 17.5 0
    endloop
  endfacet
  facet normal -1 0 0
    outer loop
      vertex 2 12.5 0
      vertex 2 17.5 10
      vertex 2 17.5 0
    endloop
  endfacet
  facet normal -1 -0 0
    outer loop
      vertex 2 17.5 10
      vertex 2 12.5 0
      vertex 2 12.5 10
    endloop
  endfacet
  facet normal -1 0 0
    outer loop
      vertex 0 0 0
      vertex 0 14 10
      vertex 0 14 0
    endloop
  endfacet
  facet normal -1 -0 0
    outer loop
      vertex 0 14 10
      vertex 0 0 0
      vertex 0 0 10
    endloop
  endfacet
  facet normal -1 0 0
    outer loop
      vertex 0 46 0
      vertex 0 60 10
      vertex 0 60 0
    endloop
  endfacet
  facet normal -1 -0 0
    outer loop
      vertex 0 60 10
      vertex 0 46 0
      vertex 0 46 10
    endloop
  endfacet
  facet normal -1 0 0
    outer loop
      vertex 0 16 0
      vertex 0 44 10
      vertex 0 44 0
    endloop
  endfacet
  facet normal -1 -0 0
    outer loop
      vertex 0 44 10
      vertex 0 16 0
      vertex 0 16 10
    endloop
  endfacet
  facet normal 0.6 0.8 -0
    outer loop
      vertex 2 42.5 0
      vertex 0 44 10
      vertex 2 42.5 10
    endloop
  endfacet
  facet normal 0.6 0.8 0
    outer loop
      vertex 0 44 10
      vertex 2 42.5 0
      vertex 0 44 0
    endloop
  endfacet
  facet normal 0.6 -0.8 0
    outer loop
      vertex 0 46 0
      vertex 2 47.5 10
      vertex 0 46 10
    endloop
  endfacet
  facet normal 0.6 -0.8 0
    outer loop
      vertex 2 47.5 10
      vertex 0 46 0
      vertex 2 47.5 0
    endloop
  endfacet
  facet normal -1 0 0
    outer loop
      vertex 2 42.5 0
      vertex 2 47.5 10
      vertex 2 47.5 0
    endloop
  endfacet
  facet normal -1 -0 0
    outer loop
      vertex 2 47.5 10
      vertex 2 42.5 0
      vertex 2 42.5 10
    endloop
  endfacet
  facet normal 1 -0 0
    outer loop
      vertex 120 16 10
      vertex 120 44 0
      vertex 120 44 10
    endloop
  endfacet
  facet normal 1 0 0
    outer loop
      vertex 120 44 0
      vertex 120 16 10
      vertex 120 16 0
    endloop
  endfacet
  facet normal 1 -0 0
    outer loop
      vertex 120 46 10
      vertex 120 60 0
      vertex 120 60 10
    endloop
  endfacet
  facet normal 1 0 0
    outer loop
      vertex 120 60 0
      vertex 120 46 10
      vertex 120 46 0
    endloop
  endfacet
  facet normal 1 -0 0
    outer loop
      vertex 120 0 10
      vertex 120 14 0
      vertex 120 14 10
    endloop
  endfacet
  facet normal 1 0 0
    outer loop
      vertex 120 14 0
      vertex 120 0 10
      vertex 120 0 0
    endloop
  endfacet
  facet normal 0 1 -0
    outer loop
      vertex 120 60 0
      vertex 106 60 10
      vertex 120 60 10
    endloop
  endfacet
  facet normal 0 1 0
    outer loop
      vertex 106 60 10
      vertex 120 60 0
      vertex 106 60 0
    endloop
  endfacet
  facet normal 0 1 -0
    outer loop
      vertex 104 60 0
      vertex 76 60 10
      vertex 104 60 10
    endloop
  endfacet
  facet normal 0 1 0
    outer loop
      vertex 76 60 10
      vertex 104 60 0
      vertex 76 60 0
    endloop
  endfacet
  facet normal 0 1 0
    outer loop
      vertex 74 60 10
      vertex 64.5 60 3
      vertex 64.5 60 10
    endloop
  endfacet
  facet normal 0 1 0
    outer loop
      vertex 64.5 60 3
      vertex 74 60 0
      vertex 62 60 3
    endloop
  endfacet
  facet normal 0 1 -0
    outer loop
      vertex 74 60 0
      vertex 64.5 60 3
      vertex 74 60 10
    endloop
  endfacet
  facet normal 0 1 -0
    outer loop
      vertex 62 60 3
      vertex 46 60 10
      vertex 62 60 10
    endloop
  endfacet
  facet normal 0 1 0
    outer loop
      vertex 62 60 3
      vertex 46 60 0
      vertex 46 60 10
    endloop
  endfacet
  facet normal 0 1 0
    outer loop
      vertex 46 60 0
      vertex 62 60 3
      vertex 74 60 0
    endloop
  endfacet
  facet normal 0 1 -0
    outer loop
      vertex 44 60 0
      vertex 16 60 10
      vertex 44 60 10
    endloop
  endfacet
  facet normal 0 1 0
    outer loop
      vertex 16 60 10
      vertex 44 60 0
      vertex 16 60 0
    endloop
  endfacet
  facet normal 0 1 0
    outer loop
      vertex 14 60 10
      vertex 10 60 3
      vertex 10 60 10
    endloop
  endfacet
  facet normal 0 1 0
    outer loop
      vertex 10 60 3
      vertex 14 60 0
      vertex 7.5 60 3
    endloop
  endfacet
  facet normal 0 1 -0
    outer loop
      vertex 14 60 0
      vertex 10 60 3
      vertex 14 60 10
    endloop
  endfacet
  facet normal 0 1 -0
    outer loop
      vertex 7.5 60 3
      vertex 0 60 10
      vertex 7.5 60 10
    endloop
  endfacet
  facet normal 0 1 0
    outer loop
      vertex 7.5 60 3
      vertex 0 60 0
      vertex 0 60 10
    endloop
  endfacet
  facet normal 0 1 0
    outer loop
      vertex 0 60 0
      vertex 7.5 60 3
      vertex 14 60 0
    endloop
  endfacet
  facet normal 0.8 -0.6 0
    outer loop
      vertex 16 60 10
      vertex 17.5 62 0
      vertex 17.5 62 10
    endloop
  endfacet
  facet normal 0.8 -0.6 0
    outer loop
      vertex 17.5 62 0
      vertex 16 60 10
      vertex 16 60 0
    endloop
  endfacet
  facet normal 0 1 -0
    outer loop
      vertex 17.5 62 0
      vertex 12.5 62 10
      vertex 17.5 62 10
    endloop
  endfacet
  facet normal 0 1 0
    outer loop
      vertex 12.5 62 10
      vertex 17.5 62 0
      vertex 12.5 62 0
    endloop
  endfacet
  facet normal -0.8 -0.6 0
    outer loop
      vertex 14 60 0
      vertex 12.5 62 10
      vertex 12.5 62 0
    endloop
  endfacet
  facet normal -0.8 -0.6 0
    outer loop
      vertex 12.5 62 10
      vertex 14 60 0
      vertex 14 60 10
    endloop
  endfacet
  facet normal 0.8 -0.6 0
    outer loop
      vertex 46 60 10
      vertex 47.5 62 0
      vertex 47.5 62 10
    endloop
  endfacet
  facet normal 0.8 -0.6 0
    outer loop
      vertex 47.5 62 0
      vertex 46 60 10
      vertex 46 60 0
    endloop
  endfacet
  facet normal 0 1 -0
    outer loop
      vertex 47.5 62 0
      vertex 42.5 62 10
      vertex 47.5 62 10
    endloop
  endfacet
  facet normal 0 1 0
    outer loop
      vertex 42.5 62 10
      vertex 47.5 62 0
      vertex 42.5 62 0
    endloop
  endfacet
  facet normal -0.8 -0.6 0
    outer loop
      vertex 44 60 0
      vertex 42.5 62 10
      vertex 42.5 62 0
    endloop
  endfacet
  facet normal -0.8 -0.6 0
    outer loop
      vertex 42.5 62 10
      vertex 44 60 0
      vertex 44 60 10
    endloop
  endfacet
  facet normal 0.8 -0.6 0
    outer loop
      vertex 76 60 10
      vertex 77.5 62 0
      vertex 77.5 62 10
    endloop
  endfacet
  facet normal 0.8 -0.6 0
    outer loop
      vertex 77.5 62 0
      vertex 76 60 10
      vertex 76 60 0
    endloop
  endfacet
  facet normal 0 1 -0
    outer loop
      vertex 77.5 62 0
      vertex 72.5 62 10
      vertex 77.5 62 10
    endloop
  endfacet
  facet normal 0 1 0
    outer loop
      vertex 72.5 62 10
      vertex 77.5 62 0
      vertex 72.5 62 0
    endloop
  endfacet
  facet normal -0.8 -0.6 0
    outer loop
      vertex 74 60 0
      vertex 72.5 62 10
      vertex 72.5 62 0
    endloop
  endfacet
  facet normal -0.8 -0.6 0
    outer loop
      vertex 72.5 62 10
      vertex 74 60 0
      vertex 74 60 10
    endloop
  endfacet
  facet normal 0.8 -0.6 0
    outer loop
      vertex 106 60 10
      vertex 107.5 62 0
      vertex 107.5 62 10
    endloop
  endfacet
  facet normal 0.8 -0.6 0
    outer loop
      vertex 107.5 62 0
      vertex 106 60 10
      vertex 106 60 0
    endloop
  endfacet
  facet normal 0 1 -0
    outer loop
      vertex 107.5 62 0
      vertex 102.5 62 10
      vertex 107.5 62 10
    endloop
  endfacet
  facet normal 0 1 0
    outer loop
      vertex 102.5 62 10
      vertex 107.5 62 0
      vertex 102.5 62 0
    endloop
  endfacet
  facet normal -0.8 -0.6 0
    outer loop
      vertex 104 60 0
      vertex 102.5 62 10
      vertex 102.5 62 0
    endloop
  endfacet
  facet normal -0.8 -0.6 0
    outer loop
      vertex 102.5 62 10
      vertex 104 60 0
      vertex 104 60 10
    endloop
  endfacet
  facet normal -0.6 -0.8 0
    outer loop
      vertex 120 14 0
      vertex 122 12.5 10
      vertex 120 14 10
    endloop
  endfacet
  facet normal -0.6 -0.8 -0
    outer loop
      vertex 122 12.5 10
      vertex 120 14 0
      vertex 122 12.5 0
    endloop
  endfacet
  facet normal -0.6 0.8 0
    outer loop
      vertex 122 17.5 0
      vertex 120 16 10
      vertex 122 17.5 10
    endloop
  endfacet
  facet normal -0.6 0.8 0
    outer loop
      vertex 120 16 10
      vertex 122 17.5 0
      vertex 120 16 0
    endloop
  endfacet
  facet normal 1 -0 0
    outer loop
      vertex 122 12.5 10
      vertex 122 17.5 0
      vertex 122 17.5 10
    endloop
  endfacet
  facet normal 1 0 0
    outer loop
      vertex 122 17.5 0
      vertex 122 12.5 10
      vertex 122 12.5 0
    endloop
  endfacet
  facet normal -0.6 -0.8 0
    outer loop
      vertex 120 44 0
      vertex 122 42.5 10
      vertex 120 44 10
    endloop
  endfacet
  facet normal -0.6 -0.8 -0
    outer loop
      vertex 122 42.5 10
      vertex 120 44 0
      vertex 122 42.5 0
    endloop
  endfacet
  facet normal -0.6 0.8 0
    outer loop
      vertex 122 47.5 0
      vertex 120 46 10
      vertex 122 47.5 10
    endloop
  endfacet
  facet normal -0.6 0.8 0
    outer loop
      vertex 120 46 10
      vertex 122 47.5 0
      vertex 120 46 0
    endloop
  endfacet
  facet normal 1 -0 0
    outer loop
      vertex 122 42.5 10
      vertex 122 47.5 0
      vertex 122 47.5 10
    endloop
  endfacet
  facet normal 1 0 0
    outer loop
      vertex 122 47.5 0
      vertex 122 42.5 10
      vertex 122 42.5 0
    endloop
  endfacet
  facet normal 1 -0 0
    outer loop
      vertex 80 10 10
      vertex 80 50 3
      vertex 80 50 10
    endloop
  endfacet
  facet normal 1 0 0
    outer loop
      vertex 80 50 3
      vertex 80 10 10
      vertex 80 10 3
    endloop
  endfacet
  facet normal -1 0 0
    outer loop
      vertex 110 10 3
      vertex 110 50 10
      vertex 110 50 3
    endloop
  endfacet
  facet normal -1 -0 0
    outer loop
      vertex 110 50 10
      vertex 110 10 3
      vertex 110 10 10
    endloop
  endfacet
  facet normal -0 0 1
    outer loop
      vertex 80 50 3
      vertex 110 10 3
      vertex 110 50 3
    endloop
  endfacet
  facet normal 0 0 1
    outer loop
      vertex 110 10 3
      vertex 80 50 3
      vertex 80 10 3
    endloop
  endfacet
  facet normal 0 1 -0
    outer loop
      vertex 110 10 3
      vertex 80 10 10
      vertex 110 10 10
    endloop
  endfacet
  facet normal 0 1 0
    outer loop
      vertex 80 10 10
      vertex 110 10 3
      vertex 80 10 3
    endloop
  endfacet
  facet normal 0 -1 0
    outer loop
      vertex 80 50 3
      vertex 110 50 10
      vertex 80 50 10
    endloop
  endfacet
  facet normal 0 -1 -0
    outer loop
      vertex 110 50 10
      vertex 80 50 3
      vertex 110 50 3
    endloop
  endfacet
  facet normal 1 -0 0
    outer loop
      vertex 7.5 0 10
      vertex 7.5 60 3
      vertex 7.5 60 10
    endloop
  endfacet
  facet normal 1 0 0
    outer loop
      vertex 7.5 60 3
      vertex 7.5 0 10
      vertex 7.5 0 3
    endloop
  endfacet
  facet normal -1 0 0
    outer loop
      vertex 10 0 3
      vertex 10 60 10
      vertex 10 60 3
    endloop
  endfacet
  facet normal -1 -0 0
    outer loop
      vertex 10 60 10
      vertex 10 0 3
      vertex 10 0 10
    endloop
  endfacet
  facet normal -0 0 1
    outer loop
      vertex 7.5 60 3
      vertex 10 0 3
      vertex 10 60 3
    endloop
  endfacet
  facet normal 0 0 1
    outer loop
      vertex 10 0 3
      vertex 7.5 60 3
      vertex 7.5 0 3
    endloop
  endfacet
  facet normal 1 -0 0
    outer loop
      vertex 62 0 10
      vertex 62 60 3
      vertex 62 60 10
    endloop
  endfacet
  facet normal 1 0 0
    outer loop
      vertex 62 60 3
      vertex 62 0 10
      vertex 62 0 3
    endloop
  endfacet
  facet normal -1 0 0
    outer loop
      vertex 64.5 0 3
      vertex 64.5 60 10
      vertex 64.5 60 3
    endloop
  endfacet
  facet normal -1 -0 0
    outer loop
      vertex 64.5 60 10
      vertex 64.5 0 3
      vertex 64.5 0 10
    endloop
  endfacet
  facet normal -0 0 1
    outer loop
      vertex 62 60 3
      vertex 64.5 0 3
      vertex 64.5 60 3
    endloop
  endfacet
  facet normal 0 0 1
    outer loop
      vertex 64.5 0 3
      vertex 62 60 3
      vertex 62 0 3
    endloop
  endfacet
endsolid OpenSCAD_Model
